<svg width="52" height="52" viewBox="0 0 52 52" fill="none" xmlns="http://www.w3.org/2000/svg">
<circle cx="26" cy="26" r="26" fill="#A3C8C8"/>
<path d="M36.7894 27.8784C36.4831 26.5006 35.7916 25.3164 35.0605 24.1511C32.4755 20.0262 29.8904 15.9013 27.3037 11.7746C26.8081 11.0583 26.1314 10.8852 25.3378 11.0669C25.0249 11.3017 24.7796 11.5896 24.5672 11.9323C23.5348 13.5998 22.4843 15.2552 21.4388 16.9141C20.5496 18.441 19.6358 19.9508 18.61 21.3834C18.4651 21.6525 18.3301 21.9301 18.1704 22.1906C17.2154 23.7621 16.1007 25.2376 15.4405 26.9924C14.7703 29.186 14.8823 31.3521 15.6578 33.4925C17.0738 36.4915 19.3444 38.4554 22.3756 39.4974C24.5013 40.0595 26.6402 40.1846 28.7955 39.6962C31.509 39.0244 33.7219 37.5506 35.3964 35.22C36.7812 32.9613 37.3426 30.5347 36.7894 27.8784ZM30.7795 36.5618C29.7258 37.201 28.5732 37.5403 27.3548 37.6346C27.2873 37.6569 27.223 37.6688 27.1621 37.674C22.9947 38.5206 18.5063 35.6124 17.5546 31.3487C17.3109 30.2553 17.2599 29.1243 17.683 28.0464C17.6979 27.9761 17.7226 27.9093 17.767 27.8458C18.2478 25.9779 19.5617 24.6292 20.5299 22.8367C20.9547 23.8649 21.3169 24.7132 21.9163 25.4209C23.0919 26.8108 24.5902 27.6556 26.2368 28.2606C27.6874 28.7935 29.1001 29.3882 30.2823 30.4627C31.1846 31.2818 31.7181 32.3152 32.0062 33.5011C32.3174 34.8001 31.8975 35.8849 30.7795 36.5618ZM34.1105 32.2449C33.2625 29.5236 31.346 28.1732 29.2433 27.0198C27.2691 26.2915 25.1995 25.7585 23.7703 23.9591C23.5924 23.7347 23.4821 23.493 23.3504 23.2531C22.425 21.3029 22.8202 19.4795 23.8411 17.7161C24.3186 16.9192 24.7697 16.1052 25.2801 15.3323C25.7724 14.5886 26.2664 14.6126 26.7423 15.3803C27.8718 17.1951 28.9848 19.0202 30.1045 20.8419C31.5732 23.0252 33.1571 25.1433 34.1763 27.6076C34.7658 29.0266 34.779 30.5261 34.1105 32.2449Z" fill="white"/>
</svg>
