<svg width="20" height="20" viewBox="0 0 20 20" fill="none" xmlns="http://www.w3.org/2000/svg">
<circle cx="10" cy="10" r="10" fill="#313A43"/>
<path d="M7.58936 7.79242C8.44591 7.79242 9.30247 7.78825 10.1585 7.7945C10.4953 7.79658 10.7698 7.69553 10.9675 7.41216C11.0266 7.32778 11.1024 7.25381 11.1782 7.18244C11.3503 7.02149 11.5296 7.02201 11.6954 7.18713C11.8026 7.29444 11.9056 7.40695 11.9982 7.52624C12.1435 7.71272 12.3318 7.79346 12.564 7.79242C13.5466 7.78721 14.5291 7.78617 15.5112 7.77575C15.643 7.77418 15.7 7.81117 15.7392 7.93775C15.8605 8.33207 15.952 8.73055 15.9975 9.14102C16.0085 9.24312 15.985 9.26187 15.8867 9.26187C14.7347 9.25822 13.5821 9.25979 12.4301 9.25979C12.2215 9.25979 12.0128 9.25979 11.8042 9.26291C11.6034 9.26604 11.4433 9.19051 11.3173 9.0332C11.2253 8.91808 11.1264 8.80869 11.0271 8.69982C10.8341 8.48886 10.6474 8.48157 10.4451 8.68263C10.3034 8.82327 10.1684 8.97017 10.034 9.11758C9.93992 9.22072 9.82644 9.26604 9.68735 9.26604C7.98731 9.26291 6.28779 9.26083 4.58775 9.26083C4.51297 9.26083 4.49414 9.24312 4.50146 9.16655C4.54434 8.72066 4.64579 8.28831 4.78646 7.86378C4.8147 7.77783 4.87117 7.79085 4.92765 7.79033C5.44483 7.78721 5.96253 7.78512 6.4797 7.78408C6.84941 7.78304 7.2186 7.78408 7.58831 7.78408C7.58936 7.78669 7.58936 7.78929 7.58936 7.79242Z" fill="white"/>
<path d="M12.468 12.3069C11.5597 12.3069 10.6513 12.3007 9.743 12.3111C9.50821 12.3137 9.33094 12.2277 9.17667 12.0709C9.07627 11.9688 8.98633 11.8574 8.88959 11.7521C8.69296 11.5391 8.51308 11.5349 8.31123 11.7412C8.17474 11.8808 8.04192 12.0235 7.91014 12.1673C7.81654 12.2694 7.70358 12.3184 7.56396 12.3184C6.7644 12.3178 5.96432 12.3184 5.16477 12.322C5.09626 12.3225 5.06436 12.2965 5.03717 12.2392C4.83794 11.8188 4.68942 11.3823 4.59111 10.9281C4.56654 10.814 4.63399 10.8333 4.69831 10.8338C5.80222 10.8354 6.90664 10.8312 8.01054 10.8416C8.3881 10.8453 8.68826 10.7281 8.90632 10.414C8.95757 10.34 9.02398 10.2749 9.09039 10.2129C9.2457 10.0691 9.3916 10.065 9.5558 10.1983C9.68757 10.3056 9.80157 10.4332 9.90145 10.5681C10.0531 10.7739 10.2466 10.8395 10.4976 10.8385C12.2494 10.8312 14.0012 10.8338 15.753 10.8333C15.924 10.8333 15.9256 10.8338 15.8916 10.9942C15.8027 11.4151 15.6573 11.8167 15.4795 12.2079C15.4434 12.2871 15.398 12.3116 15.3117 12.3111C14.3641 12.3079 13.4166 12.309 12.469 12.309C12.468 12.3085 12.468 12.3079 12.468 12.3069Z" fill="white"/>
<path d="M5.6875 6.21836C8.09036 3.16537 12.6268 3.35862 14.7922 6.21419C14.4324 6.21836 14.0831 6.23086 13.7338 6.20377C13.6271 6.19544 13.5424 6.12355 13.4697 6.0475C13.3474 5.91884 13.2297 5.78497 13.1079 5.65631C12.9159 5.45316 12.7329 5.45055 12.5347 5.64849C12.4061 5.77716 12.2842 5.91311 12.1535 6.03969C12.0379 6.15116 11.9009 6.21627 11.7331 6.21627C9.75902 6.21575 7.78497 6.21732 5.81143 6.21836C5.77744 6.21836 5.74398 6.21836 5.6875 6.21836Z" fill="white"/>
<path d="M14.3973 13.7515C12.1796 16.0601 8.36221 16.1065 6.09375 13.7312C6.35783 13.6364 6.51418 13.4217 6.68675 13.2254C6.73486 13.1707 6.79134 13.1207 6.85043 13.078C6.97802 12.9873 7.11294 12.9962 7.23164 13.1003C7.27714 13.1399 7.32054 13.1842 7.35505 13.2337C7.62959 13.6244 8.01708 13.7744 8.48092 13.7655C9.75896 13.7411 11.0365 13.7494 12.3145 13.7499C12.9666 13.7499 13.6187 13.751 14.2708 13.752C14.3042 13.7515 14.3377 13.7515 14.3973 13.7515Z" fill="white"/>
</svg>
