<svg width="20" height="20" viewBox="0 0 20 20" fill="none" xmlns="http://www.w3.org/2000/svg">
<circle cx="10" cy="10" r="10" fill="#EAB324"/>
<path d="M13.9998 8.63724C14.2439 7.26456 13.3293 6.53754 12.0556 6.05879L12.5545 4.19683L11.5423 3.92561L11.0567 5.73788C10.7909 5.66666 10.5172 5.59934 10.2454 5.53338L10.7342 3.70909L9.72202 3.43787L9.22282 5.29804C9.00233 5.24411 8.78542 5.19115 8.57552 5.1349L8.57703 5.12929L7.18106 4.75439L6.85676 5.96471C6.85676 5.96471 7.60893 6.14907 7.59196 6.16084C8.00243 6.27083 8.06437 6.57264 8.04141 6.81305L7.47313 8.93391C7.50178 8.94159 7.53789 8.95298 7.57772 8.97053L7.47098 8.94193L6.67411 11.913C6.61754 12.0525 6.47997 12.2622 6.19321 12.1862C6.20267 12.2025 5.45751 11.9891 5.45751 11.9891L4.89368 13.2881L6.21178 13.6413C6.45677 13.707 6.6969 13.7765 6.93287 13.8414L6.42908 15.7244L7.44058 15.9954L7.93971 14.1327C8.21522 14.2134 8.48321 14.2878 8.74611 14.3582L8.24863 16.212L9.26085 16.4832L9.76427 14.6044C11.4955 14.9514 12.8169 14.7909 13.4439 13.0414C13.9494 11.6331 13.5166 10.8273 12.6198 10.3087C13.2973 10.1328 13.8226 9.64215 13.9998 8.63724V8.63724ZM11.5042 12.2829C11.1273 13.6896 9.01738 12.9533 8.33039 12.7692L8.99897 10.274C9.68553 10.4597 11.8972 10.8161 11.5042 12.2829V12.2829ZM11.9759 8.63703C11.6329 9.91708 9.87646 9.28579 9.30459 9.13342L9.91068 6.87149C10.483 7.02485 12.3342 7.30267 11.9759 8.63703Z" fill="white"/>
</svg>
