<svg width="20" height="20" viewBox="0 0 20 20" fill="none" xmlns="http://www.w3.org/2000/svg">
<circle cx="10" cy="10" r="10" fill="#5681D6"/>
<path d="M14.9914 11.0299C15.1532 13.4947 13.0077 15.6727 10.8083 15.9535C8.13244 16.2941 5.69031 14.7345 5.14495 12.2399C4.69847 10.1993 5.32473 8.31117 6.4574 6.60525C7.29642 5.3385 8.31522 4.21515 9.50783 3.25911C9.77451 3.04699 10.0232 2.86176 10.3618 3.1426C12.5523 4.9501 14.3442 7.0265 14.9045 9.91851C14.9704 10.28 14.9614 10.6594 14.9914 11.0299ZM12.1867 10.9672C12.3605 10.9552 12.5343 10.9462 12.7081 10.9253C14.1134 10.773 14.4101 10.9492 13.8497 9.15667C13.2145 7.13107 11.8571 5.58945 10.3199 4.18527C10.0742 3.9612 9.91535 4.04486 9.68162 4.21216C9.08532 4.63641 8.65083 5.21899 8.17439 5.75079C7.17057 6.87114 6.42444 8.14088 6.0379 9.61377C5.88208 10.2083 5.97197 10.4503 6.64019 10.3099C7.94066 10.035 9.20818 10.1575 10.4307 10.7013C10.9881 10.9492 11.5844 10.9851 12.1867 10.9672Z" fill="white"/>
</svg>
