<svg width="20" height="20" viewBox="0 0 20 20" fill="none" xmlns="http://www.w3.org/2000/svg">
<circle cx="10" cy="10" r="10" fill="#82D3B1"/>
<path d="M5.17207 8.29975C5.17514 8.11847 5.25459 7.95694 5.31648 7.79409C5.40866 7.55223 5.52015 7.31783 5.65403 7.09441C5.79844 6.85255 5.95339 6.61991 6.1338 6.40263C6.2905 6.21432 6.45159 6.02997 6.63595 5.87019C7.0332 5.52518 7.46468 5.23021 7.95059 5.01688C8.19596 4.90934 8.44441 4.81891 8.70426 4.75132C8.94261 4.68942 9.17789 4.62183 9.42677 4.62622C9.51061 4.57662 9.61025 4.63456 9.69453 4.58803C9.94648 4.58759 10.2015 4.56213 10.4491 4.59461C10.662 4.6227 10.8784 4.64597 11.0913 4.69952C11.2796 4.74693 11.4666 4.80355 11.6531 4.85578C11.7786 4.89134 11.9187 4.92119 12.0192 5.02258C12.121 5.07131 12.1592 5.17753 12.2233 5.25786C12.4511 5.54493 12.6425 5.85614 12.7878 6.19325C12.7935 6.22749 12.7961 6.26305 12.826 6.28807C12.8857 6.34557 12.8813 6.43116 12.9186 6.49876C12.9247 6.53256 12.9278 6.56723 12.9515 6.59533C12.9585 6.6085 12.9625 6.62254 12.9647 6.63747C12.9669 6.67083 12.9735 6.70287 12.9963 6.72921C13.0029 6.74237 13.0068 6.75598 13.009 6.77047C13.0103 6.80427 13.0191 6.83543 13.041 6.86221C13.0476 6.87537 13.0516 6.88986 13.0538 6.90435C13.0542 6.94034 13.0691 6.97063 13.088 7.00004C13.0981 7.02462 13.1003 7.05051 13.1007 7.07685C13.1007 7.12294 13.0964 7.17035 13.1288 7.20985C13.1359 7.22434 13.1398 7.24014 13.142 7.25594C13.1451 7.28228 13.1442 7.30861 13.1446 7.33495C13.1416 7.37182 13.1517 7.4043 13.174 7.43371C13.1806 7.44864 13.1846 7.464 13.1868 7.48024C13.185 7.53116 13.1969 7.57857 13.2245 7.62246C13.2377 7.67821 13.2438 7.73351 13.2043 7.78268C13.1512 7.87793 13.1521 7.99074 13.0959 8.0873C12.9783 8.29054 12.8132 8.43539 12.599 8.52581C12.4985 8.56795 12.3984 8.61755 12.2847 8.61492C12.247 8.65223 12.1886 8.61887 12.15 8.65398C12.078 8.65618 12.0065 8.65881 11.9345 8.66101C11.8914 8.68647 11.844 8.68032 11.7984 8.67593C11.7611 8.67242 11.7369 8.65486 11.7536 8.61141C11.7672 8.50957 11.8313 8.42661 11.8546 8.32565C11.8914 8.16675 11.9367 8.01181 11.9327 7.84676C11.9301 7.73834 11.9301 7.62948 11.9288 7.52106C11.9112 7.49868 11.9099 7.4719 11.9103 7.44513C11.9077 7.41045 11.9182 7.37314 11.891 7.34329C11.8124 7.08739 11.704 6.8486 11.5473 6.62693C11.3397 6.33328 11.0579 6.14409 10.741 6.00231C10.622 5.9492 10.4925 5.89653 10.3543 5.89521C10.3152 5.86053 10.2573 5.89301 10.2186 5.85658C10.0742 5.85658 9.92936 5.85658 9.78495 5.85658C9.74632 5.89257 9.68838 5.86009 9.64931 5.89521C9.41316 5.92901 9.19764 6.02031 8.99485 6.1397C8.61296 6.364 8.35794 6.69233 8.19684 7.10187C8.07701 7.4065 8.05594 7.71947 8.07394 8.0399C8.10818 8.0794 8.07657 8.13734 8.11257 8.17597C8.15251 8.39632 8.24425 8.59604 8.35574 8.7883C8.56863 9.15526 8.88862 9.40239 9.27182 9.5648C9.38858 9.6144 9.51412 9.66663 9.64888 9.66707C9.68794 9.70175 9.74588 9.66927 9.78451 9.7057C10.0768 9.70658 10.3692 9.70833 10.6611 9.70833C12.0675 9.70921 13.4738 9.70965 14.8802 9.71316C14.9171 9.71316 14.9781 9.6719 14.9957 9.74871C14.9452 9.79919 14.8798 9.78559 14.8197 9.78559C14.2947 9.7869 13.7701 9.78603 13.2452 9.78646C13.1868 9.78646 13.1284 9.78339 13.0718 9.79963C13.0323 9.81236 13.0108 9.8387 13.0108 9.88128C13.0086 9.8962 13.0042 9.91069 12.9976 9.92473C12.9756 9.95195 12.966 9.98355 12.9651 10.0178C12.9634 10.0327 12.959 10.0463 12.9524 10.0599C12.9291 10.0876 12.9234 10.1205 12.9243 10.1552C12.9247 10.2052 12.9037 10.246 12.8699 10.2812C12.84 10.3057 12.8374 10.3413 12.8317 10.376C12.7228 10.7008 12.5314 10.9786 12.3361 11.2543C12.168 11.4913 11.9955 11.7248 11.787 11.9294C11.5688 12.1436 11.3248 12.3258 11.0829 12.5119C10.7704 12.7529 10.4091 12.9008 10.0646 13.0808C10.0347 13.0961 10.004 13.1058 9.97062 13.1071C9.93551 13.1067 9.90215 13.1106 9.87362 13.1343C9.86045 13.1409 9.8464 13.1448 9.83192 13.1475C9.79856 13.1497 9.76651 13.1563 9.73974 13.1786C9.72657 13.1852 9.71296 13.1892 9.69848 13.1914C9.66468 13.1927 9.63351 13.2015 9.60674 13.2234C9.59357 13.23 9.57952 13.2339 9.5646 13.2361C9.52904 13.2366 9.49832 13.2506 9.46935 13.2699C9.4452 13.28 9.41931 13.2822 9.39385 13.2831C9.3561 13.28 9.32406 13.2941 9.29377 13.3143C9.26787 13.3244 9.24109 13.3274 9.21388 13.3274C9.16384 13.3252 9.11512 13.3279 9.07254 13.3595C9.0326 13.3735 8.99133 13.374 8.94964 13.3727C8.88335 13.3727 8.8162 13.3648 8.75738 13.4073C8.32984 13.4824 7.90231 13.4837 7.47478 13.4082C7.41684 13.3683 7.35099 13.3705 7.28515 13.3722C7.25574 13.3727 7.22721 13.3696 7.2 13.3586C7.15874 13.327 7.11001 13.3257 7.06085 13.3274C7.03364 13.3274 7.00686 13.3244 6.9814 13.3143C6.95068 13.2941 6.91819 13.2796 6.88001 13.2831C6.85323 13.2822 6.82689 13.2796 6.80231 13.2686C6.77159 13.2458 6.73691 13.2366 6.69872 13.2405C6.65965 13.2405 6.62059 13.2423 6.5824 13.2326C6.43184 13.0908 6.27821 12.9499 6.14916 12.7897C6.01967 12.6295 5.88184 12.4741 5.77298 12.2977C5.61452 12.0409 5.46528 11.7806 5.35247 11.4988C5.27127 11.296 5.2085 11.0875 5.13344 10.883C5.10886 10.8158 5.10096 10.7495 5.10227 10.6802C5.10666 10.6411 5.09174 10.6082 5.07155 10.5761C5.0575 10.5388 5.05838 10.5002 5.05794 10.4616C5.06365 10.4207 5.04389 10.3874 5.02634 10.3531C5.01844 10.3005 5.02326 10.2478 5.02195 10.1951C5.02195 10.1657 5.02195 10.1367 5.02195 10.1073C5.02195 10.0792 5.02195 10.0507 5.02195 10.0226C5.0158 9.97609 5.03775 9.92517 5 9.88347C5 9.64995 5 9.41643 5 9.18291C5.03775 9.14077 5.01624 9.08942 5.02195 9.04245C5.02195 9.01392 5.02195 8.98583 5.03994 8.96125C5.0417 8.90418 5.04389 8.84712 5.04565 8.7905C5.08252 8.75275 5.04872 8.69393 5.08603 8.65618C5.06716 8.56268 5.12071 8.48279 5.13432 8.39501C5.16022 8.36823 5.14968 8.32785 5.17207 8.29975Z" fill="white"/>
<path d="M12.8533 10.2803C12.8642 10.2355 12.9134 10.2035 12.898 10.1495C12.9275 10.1275 12.9121 10.0837 12.9411 10.0613C12.9415 10.0472 12.9419 10.0327 12.9424 10.0187C12.9713 9.9963 12.9564 9.95241 12.985 9.93002C12.9854 9.91598 12.9858 9.90149 12.9863 9.88744C13.0152 9.86506 13.0003 9.82116 13.0288 9.79878C13.046 9.72679 13.1052 9.75576 13.146 9.75576C13.7628 9.75357 14.3799 9.75357 14.9966 9.75269C14.998 9.83916 14.9993 9.92607 15.0006 10.0125C14.9554 10.0819 15.0072 10.1679 14.9624 10.2373C14.9602 10.2513 14.958 10.2654 14.9563 10.2794C14.922 10.3194 14.9523 10.3764 14.9194 10.4168C14.9176 10.4585 14.9154 10.5002 14.9137 10.5419C14.8768 10.5801 14.9102 10.6385 14.8742 10.6767C14.8426 10.8992 14.768 11.1108 14.6881 11.3184C14.5836 11.5901 14.4537 11.8517 14.3035 12.1015C14.013 12.5848 13.6548 13.0088 13.218 13.3705C12.9371 13.6027 12.6421 13.8112 12.3195 13.9762C12.0535 14.1123 11.7809 14.237 11.489 14.316C11.2169 14.3893 10.9482 14.4762 10.6634 14.4863C10.5949 14.5328 10.5093 14.4806 10.4399 14.5245C10.411 14.5267 10.3824 14.5293 10.3535 14.5315C10.2846 14.5662 10.2108 14.5477 10.1397 14.549C9.98388 14.5512 9.82805 14.5521 9.67267 14.5482C9.63975 14.5271 9.60156 14.5275 9.56469 14.5245C9.47602 14.4964 9.38735 14.4946 9.29912 14.5258C9.10643 14.7606 8.89134 14.97 8.64202 15.1469C8.43616 15.2926 8.21668 15.4081 7.9858 15.5055C7.81944 15.5757 7.64869 15.6315 7.47179 15.6706C7.39498 15.6877 7.3208 15.7171 7.24003 15.7136C7.20184 15.7408 7.15751 15.7298 7.11581 15.7324C7.08684 15.7324 7.05787 15.7324 7.0289 15.7324C6.98149 15.7386 6.93013 15.7166 6.88756 15.7544C6.81425 15.7544 6.74139 15.7544 6.66808 15.7544C6.61014 15.7127 6.54386 15.7408 6.48197 15.7324C6.4271 15.7324 6.37223 15.7324 6.31737 15.7324C6.22958 15.7355 6.14398 15.7303 6.06014 15.6973C6.00045 15.6741 5.98245 15.6394 5.99693 15.5797C6.07419 15.2628 6.15144 14.9454 6.22167 14.6267C6.27303 14.3932 6.34063 14.1637 6.38013 13.9271C6.41174 13.7379 6.47626 13.5548 6.51445 13.3665C6.52894 13.331 6.55483 13.2998 6.55396 13.2585C6.55703 13.2419 6.56274 13.2265 6.57547 13.2147C6.62068 13.2151 6.66589 13.2151 6.7111 13.2155C6.73392 13.2445 6.77738 13.2296 6.80021 13.2577C6.82874 13.2585 6.85771 13.259 6.88624 13.2599C6.9095 13.288 6.95252 13.2735 6.97578 13.3016C7.00475 13.302 7.03329 13.3029 7.06226 13.3033C7.09869 13.3424 7.15882 13.3068 7.19526 13.3455C7.22423 13.3459 7.2532 13.3463 7.28173 13.3472C7.33309 13.3933 7.40683 13.3441 7.45862 13.3894C7.7119 13.3801 7.95946 13.4477 8.21493 13.4385C8.40324 13.4319 8.58408 13.3621 8.77371 13.3889C8.8255 13.3446 8.89925 13.3933 8.95016 13.3468C8.99362 13.3463 9.03707 13.3459 9.08053 13.3459C9.11696 13.3068 9.1771 13.3428 9.21353 13.3038C9.2425 13.3029 9.27103 13.302 9.3 13.3011C9.32371 13.2739 9.36672 13.2884 9.38911 13.2594C9.41764 13.259 9.44661 13.2585 9.47514 13.2577C9.49841 13.2296 9.54186 13.2445 9.56425 13.2155C9.57873 13.2151 9.59278 13.2147 9.60726 13.2142C9.63009 13.1857 9.67355 13.201 9.69637 13.1721C9.71042 13.1716 9.7249 13.1712 9.73895 13.1708C9.76177 13.1422 9.80523 13.1572 9.82762 13.1282C9.84166 13.1277 9.85615 13.1273 9.87019 13.1269C9.89258 13.0979 9.93647 13.1137 9.95886 13.0838C10.1169 13.0544 10.2459 12.9587 10.3873 12.8929C10.5778 12.8038 10.7656 12.7059 10.9421 12.5918C11.0733 12.5066 11.1998 12.4092 11.3196 12.3078C11.5294 12.1305 11.7546 11.9654 11.9249 11.749C12.0531 11.5866 12.1826 11.4242 12.3041 11.2556C12.4683 11.0287 12.6053 10.7882 12.7396 10.5445C12.7699 10.4897 12.787 10.4273 12.8098 10.3685C12.8401 10.3466 12.8243 10.3027 12.8533 10.2803Z" fill="white"/>
<path d="M13.2042 7.78221C13.2038 7.72383 13.2034 7.66589 13.2029 7.60751C13.1647 7.57064 13.1999 7.51094 13.1612 7.47451C13.1604 7.46003 13.1599 7.44598 13.159 7.43149C13.1388 7.40999 13.1384 7.38321 13.1384 7.35644C13.1358 7.32176 13.1472 7.28445 13.1173 7.25548C13.1169 7.24099 13.1165 7.22695 13.116 7.21246C13.077 7.17647 13.1129 7.11589 13.0734 7.0799C13.073 7.05137 13.0726 7.02284 13.0717 6.99387C13.0436 6.9706 13.0585 6.92715 13.0295 6.90476C13.0291 6.89071 13.0287 6.87623 13.0282 6.86218C13.0001 6.83936 13.0151 6.7959 12.9857 6.77351C12.9852 6.75947 12.9848 6.74498 12.9843 6.73094C12.9558 6.70811 12.9712 6.66466 12.9418 6.64227C12.9413 6.62822 12.9409 6.61374 12.9404 6.59969C12.9119 6.57731 12.9273 6.53341 12.8974 6.51146C12.868 6.4386 12.8386 6.36573 12.8092 6.29287C12.7798 6.27092 12.796 6.22659 12.7657 6.20508C12.6521 5.95049 12.5129 5.70863 12.3566 5.47994C12.2504 5.32455 12.1253 5.18014 12.0195 5.02344C12.1793 5.05197 12.3119 5.14459 12.4475 5.22096C12.9009 5.47555 13.3127 5.78984 13.666 6.1726C14.0545 6.59355 14.3727 7.06541 14.5975 7.59303C14.7204 7.88141 14.8292 8.1777 14.8793 8.49111C14.888 8.54554 14.9218 8.5969 14.9144 8.65659C14.8569 8.69346 14.7981 8.68644 14.7388 8.6623C14.4228 8.64913 14.1168 8.59338 13.8341 8.44283C13.569 8.30149 13.3631 8.10308 13.2473 7.82172C13.2372 7.79714 13.2301 7.78221 13.2042 7.78221Z" fill="white"/>
</svg>
