<svg width="20" height="20" viewBox="0 0 20 20" fill="none" xmlns="http://www.w3.org/2000/svg">
<circle cx="10" cy="10" r="10" fill="#B79C69"/>
<mask id="mask0_3298_10927" style="mask-type:alpha" maskUnits="userSpaceOnUse" x="0" y="0" width="20" height="20">
<circle cx="10" cy="10" r="10" fill="#4F6F86"/>
</mask>
<g mask="url(#mask0_3298_10927)">
<path d="M17.7925 16.9849C17.343 15.972 16.9085 14.9876 16.4662 14.0068C16.4185 13.9014 16.4498 13.8209 16.4769 13.729C16.6585 13.1093 16.672 12.4875 16.4975 11.8649C16.3237 11.2424 16.1485 10.6206 15.9669 10.0001C15.4953 8.3868 14.9682 6.78983 15.1292 5.05966C15.1862 4.4478 14.8293 3.96059 14.2958 3.64148C13.8058 3.34873 13.1768 3.42993 12.7708 3.83095C12.4232 4.17428 12.0792 4.52117 11.7351 4.86734C11.6503 4.95282 11.5777 5.02405 11.4167 4.96778C10.9131 4.79113 10.3768 4.7199 9.85323 4.82176C9.62814 4.86592 9.54267 4.83957 9.47357 4.69141C9.34322 4.41005 9.20931 4.12941 9.05759 3.86016C8.72922 3.27536 8.22349 2.95483 7.55109 2.91565C7.2448 2.89785 7.09379 3.02891 7.0418 3.33448C6.9321 3.98125 6.82953 4.62944 6.71556 5.27549C6.69277 5.40228 6.71556 5.5483 6.53678 5.62238C5.44269 6.07255 4.79806 6.8981 4.56016 8.04703C4.52953 8.19377 4.46756 8.30631 4.37567 8.41885C3.92123 8.97587 3.64486 9.61123 3.57861 10.3285C3.45966 11.6206 3.93832 12.7047 4.76245 13.6635C4.84009 13.7539 4.94693 13.8088 4.81231 13.9598C3.94545 14.9349 3.08927 15.92 2.21457 16.9194L1.71097 17.4906C1.65969 17.5483 1.65898 17.6352 1.70812 17.6951C1.93392 17.9679 2.15046 18.1787 2.42113 18.4522C4.96047 21.0187 8.06893 22.0365 11.6411 21.5436C13.7124 21.258 15.5502 20.3897 17.0923 18.9758C17.3964 18.6973 17.6814 18.4109 17.947 18.1175C18.1023 17.9458 18.1365 17.6965 18.0354 17.4878L17.7925 16.9849ZM17.0496 17.8475C15.7895 19.1425 14.2823 20.0186 12.5414 20.4923C11.9502 20.6532 11.3455 20.748 10.7336 20.7914C10.3974 20.8149 10.3924 20.8228 10.3568 20.4552C10.282 19.6774 10.0669 18.943 9.68869 18.2592C9.24635 17.46 8.6409 16.8111 7.87874 16.3068C7.75267 16.2235 7.66577 16.1772 7.58172 16.3609C7.49695 16.5447 7.28967 16.7171 7.29751 16.8873C7.30606 17.064 7.5867 17.1317 7.74127 17.2563C8.83179 18.1353 9.39736 19.2863 9.53198 20.6668C9.54552 20.8064 9.49138 20.8078 9.38454 20.7993C6.82668 20.5963 4.65703 19.5777 2.88128 17.7221C2.77372 17.6096 2.79081 17.5512 2.88341 17.4465C3.74102 16.4742 4.59363 15.4984 5.44483 14.5204C5.52461 14.4285 5.5766 14.3907 5.70125 14.4684C7.55607 15.6308 9.43725 15.4578 11.3227 14.5517C11.6411 14.3986 11.9338 14.1941 12.2437 14.0218C12.3505 13.9619 12.3812 13.9142 12.3035 13.8031C12.1774 13.6222 12.1055 13.3373 11.9395 13.2689C11.77 13.1991 11.5642 13.4334 11.3825 13.546C10.3974 14.1521 9.33254 14.462 8.17292 14.4199C6.26611 14.3508 4.57084 12.7738 4.41841 10.9219C4.35573 10.1597 4.58295 9.48088 5.08369 8.90749C5.24325 8.72443 5.34297 8.53567 5.38286 8.30203C5.55595 7.28915 6.12863 6.62244 7.11659 6.32185C7.32458 6.25846 7.43997 6.1274 7.47416 5.90872C7.57388 5.27834 7.68998 4.65009 7.78472 4.019C7.81321 3.83024 7.87874 3.84164 8.00268 3.92854C8.15939 4.03894 8.27122 4.18425 8.35527 4.35378C8.53263 4.71064 8.71569 5.06465 8.88807 5.42365C8.99918 5.65514 9.17299 5.75059 9.42443 5.71996C10.1381 5.63377 10.8433 5.70144 11.5385 5.86527C11.7764 5.92154 11.9495 5.86456 12.1133 5.69788C12.5243 5.27976 12.9482 4.87447 13.3534 4.45065C13.5301 4.26617 13.6918 4.26261 13.8919 4.39367C14.1405 4.55678 14.273 4.78543 14.2894 5.07818C14.3001 5.26409 14.3108 5.45356 14.2901 5.63734C14.1327 7.01064 14.5843 8.27853 14.9561 9.56137C15.1905 10.3691 15.4141 11.1797 15.6506 11.9875C15.8636 12.7161 15.7817 13.4071 15.4084 14.0652C15.0893 14.6279 14.7716 15.1914 14.4433 15.7484C14.3706 15.8716 14.3528 15.9407 14.5002 16.0105C14.6975 16.1038 14.902 16.3154 15.0744 16.2897C15.2382 16.2648 15.3016 15.9592 15.4098 15.7783C15.573 15.5041 15.729 15.2263 15.8892 14.9506C15.8963 14.9378 15.9134 14.9307 15.9377 14.9114C16.338 15.8132 16.7326 16.7121 17.1379 17.606C17.1977 17.7378 17.1129 17.7827 17.0496 17.8475Z" fill="white"/>
<path d="M9.43255 11.7358C9.37842 11.5698 9.2965 11.5356 9.1227 11.6069C8.56711 11.8334 8.01223 11.7892 7.47445 11.5342C7.13255 11.3718 7.10975 11.2529 7.34196 10.9473C7.38826 10.8867 7.45308 10.8618 7.51576 10.8298C7.70523 10.7336 7.89898 10.646 8.08275 10.5399C8.41183 10.349 8.41112 9.96361 8.07705 9.7777C7.80638 9.6274 7.52858 9.48922 7.24723 9.36243C6.92313 9.21641 6.63679 9.40303 6.62183 9.76131C6.61542 9.92087 6.60474 10.0826 6.62397 10.24C6.65388 10.4907 6.51499 10.678 6.42096 10.8853C6.37965 10.9772 6.31982 10.9758 6.25073 10.938C6.16596 10.8917 6.05128 10.8561 6.00854 10.782C5.8091 10.4351 5.57404 10.5527 5.32617 10.7037C5.27346 10.7357 5.22003 10.7728 5.16162 10.7899C4.99067 10.8397 5.02629 10.9266 5.10179 11.0377C5.37745 11.4445 5.74713 11.7151 6.23078 11.8156C6.37324 11.8455 6.49291 11.8989 6.60972 11.9894C7.13041 12.3947 7.72731 12.5891 8.41539 12.6055C8.67039 12.5991 8.95033 12.5606 9.22385 12.4801C9.72958 12.3306 9.72958 12.3299 9.49238 11.8548C9.47101 11.8149 9.44608 11.7771 9.43255 11.7358Z" fill="white"/>
<path d="M13.155 5.48928C13.0995 5.45225 13.0275 5.35893 12.9634 5.48786C12.8644 5.68588 12.769 5.88532 12.6657 6.08049C12.6122 6.18092 12.6956 6.20016 12.7454 6.24289C12.9192 6.39034 13.0175 6.58337 12.9891 6.80489C12.9698 6.9559 13.0069 7.01217 13.145 7.03924C13.2312 7.05634 13.3124 7.0948 13.3965 7.12258C13.8239 7.2629 13.8388 7.2515 13.8502 6.79421C13.8502 6.78566 13.8502 6.7764 13.8502 6.74577C13.8274 6.22794 13.608 5.79415 13.155 5.48928Z" fill="white"/>
<path d="M7.25052 8.66806C7.60097 8.67091 7.89515 8.37816 7.89444 8.02771C7.89373 7.68723 7.61522 7.40089 7.27474 7.39091C6.925 7.38023 6.6237 7.66728 6.61729 8.01773C6.61088 8.36747 6.90079 8.66521 7.25052 8.66806Z" fill="white"/>
<path d="M10.8258 8.17206C10.4761 8.16351 10.1769 8.45199 10.1719 8.80173C10.167 9.15147 10.459 9.44849 10.8087 9.44921C11.1485 9.44992 11.437 9.17212 11.4491 8.83236C11.4612 8.48262 11.177 8.18061 10.8258 8.17206Z" fill="white"/>
</g>
</svg>
