<svg width="52" height="52" viewBox="0 0 52 52" fill="none" xmlns="http://www.w3.org/2000/svg">
<circle cx="26" cy="26" r="26" fill="#53C0FE"/>
<path d="M20.1958 15.8804C21.2815 15.4369 22.4227 15.213 23.5742 15.0393C24.8285 14.8501 26.0901 14.8213 27.3569 14.9063C28.9689 15.0149 30.5336 15.3416 32.0598 15.8641C31.9881 16.0208 31.8396 15.9942 31.7161 15.992C31.4101 15.9868 31.1204 16.0519 30.8351 16.1524C30.0044 16.4628 29.4966 17.2803 29.4478 18.2758C29.3769 19.7252 29.8425 21.0171 30.5676 22.23C31.5077 23.8036 32.7457 25.0807 34.3983 25.9203C35.1308 26.2928 35.9083 26.4318 36.725 26.3623C37.6156 26.2862 38.402 25.5109 38.4996 24.607C38.8248 23.5966 38.5595 22.6343 38.2298 21.6897C37.8654 20.6461 37.2904 19.7178 36.5912 18.8627C36.4456 18.6853 36.2594 18.5301 36.2062 18.2884C36.3215 18.0777 36.4471 18.193 36.5602 18.2847C37.4153 18.9772 38.1411 19.7888 38.7524 20.7008C39.351 21.5944 39.7989 22.5596 40.0613 23.6062C40.1071 23.7902 40.2158 23.978 40.0813 24.1709C40.2513 25.0992 40.4116 26.0268 40.4737 26.9721C40.5676 28.4015 40.5373 29.8235 40.3407 31.2419C40.2306 32.0342 40.0428 32.8073 39.7923 33.5686C39.4966 34.4651 38.9822 35.1754 38.2069 35.7245C36.3311 37.0534 34.2276 37.8479 32.0288 38.4296C29.6925 39.0482 27.3118 39.3069 24.9046 39.1606C21.3015 38.9418 17.8898 38.0386 14.7316 36.2256C13.1861 35.3387 12.402 34.0105 12.0694 32.3187C11.6281 30.0756 11.5764 27.828 11.9008 25.5693C11.9703 25.0837 12.0546 24.6003 12.1322 24.1162C12.0354 23.9041 12.1314 23.7045 12.1854 23.5101C12.7722 21.4059 13.974 19.7067 15.6303 18.3098C15.7153 18.2381 15.8026 18.1701 15.9201 18.1605C15.9844 18.1731 16.0162 18.2145 16.0228 18.2773C15.9585 18.5264 15.7634 18.6882 15.6126 18.8774C14.5934 20.1539 13.8506 21.5552 13.6096 23.1938C13.5446 23.6387 13.5601 24.0711 13.6858 24.5013C13.824 25.6269 14.6518 26.3387 15.7833 26.3741C16.7619 26.4052 17.6215 26.0925 18.4234 25.5818C20.3355 24.3638 21.6651 22.6742 22.4449 20.5486C22.7464 19.7259 22.8395 18.8701 22.7457 18.0068C22.6511 17.1406 22.2091 16.4909 21.3783 16.1457C21.1004 16.057 20.821 15.9861 20.5247 15.9927C20.4042 15.9957 20.2756 16.0001 20.1958 15.8804Z" fill="#DE9F75"/>
<path d="M20.1962 15.8801C20.5059 15.909 20.8185 15.8698 21.1267 15.9533C21.2472 15.9858 21.347 16.0294 21.4313 16.1166C21.7225 16.3347 21.738 16.6643 21.7646 16.9799C21.8208 17.6444 21.6781 18.2881 21.4416 18.8964C20.4845 21.3591 18.9235 23.3362 16.6404 24.705C16.0403 25.0649 15.3898 25.2889 14.6722 25.2231C14.1999 25.1802 13.8222 24.9888 13.6286 24.5254C13.3233 23.8114 13.4933 23.0989 13.667 22.399C14.0351 20.9134 14.8119 19.6429 15.8052 18.4951C15.8688 18.4212 15.9301 18.345 15.9922 18.2696C16.0173 18.1935 16.0462 18.1196 16.1068 18.0634C16.1859 17.9821 16.2649 17.9008 16.3418 17.8173C16.8791 17.2918 17.4734 16.8395 18.1267 16.4677C18.2856 16.3775 18.446 16.2829 18.6382 16.2778C19.1415 16.0849 19.6596 15.9474 20.1962 15.8801Z" fill="black"/>
<path d="M36.2382 18.2644C36.842 19.0079 37.434 19.7596 37.8731 20.6184C38.3077 21.4691 38.61 22.359 38.7253 23.3095C38.7792 23.7529 38.729 24.1853 38.5915 24.6088C38.2256 25.1668 37.5826 25.3693 36.7533 25.1764C35.8945 24.9769 35.1643 24.5223 34.4902 23.9791C32.8309 22.6406 31.5782 20.9902 30.8124 18.9953C30.5072 18.2008 30.2914 17.3745 30.5493 16.5105C30.5944 16.3604 30.6203 16.1934 30.7903 16.118C31.0164 15.8948 31.3121 15.9185 31.5937 15.8956C31.7489 15.883 31.9041 15.8749 32.0593 15.8638C32.5789 15.9458 33.0741 16.1121 33.5626 16.3021C33.7755 16.2725 33.9425 16.3871 34.1125 16.4831C34.7925 16.866 35.4089 17.3324 35.9507 17.8948C36.0283 17.9806 36.1125 18.0589 36.2005 18.1328C36.236 18.1705 36.2626 18.2104 36.2382 18.2644Z" fill="black"/>
<path d="M18.6378 16.2786C17.81 16.7183 17.0487 17.2505 16.3658 17.8942C16.2801 17.9312 16.2113 17.9918 16.147 18.0576C16.0886 18.1352 15.9926 18.1485 15.9142 18.1921C14.1973 19.5883 12.9179 21.2867 12.3 23.4405C12.2357 23.6637 12.1855 23.8913 12.1293 24.1167C11.7967 24.3673 11.4722 24.6304 11.1293 24.8654C10.7486 25.1263 10.4537 25.0362 10.2897 24.6008C10.0302 23.912 9.95855 23.1929 10.0214 22.4619C10.0465 22.167 10.2217 21.9371 10.4064 21.7206C12.0332 19.8122 13.6814 17.9223 15.235 15.9526C15.7997 15.2364 16.0118 15.2187 17.0155 15.5033C17.5957 15.6681 18.1323 15.9467 18.6378 16.2786Z" fill="#A76435"/>
<path d="M36.2372 18.2644C36.2091 18.2364 36.1803 18.209 36.1522 18.1809C36.0975 18.0863 36.0251 18.0117 35.9238 17.9673C35.2135 17.3029 34.4589 16.7005 33.5616 16.3021C34.2446 15.8513 34.9696 15.5091 35.7849 15.3657C36.2113 15.2903 36.5365 15.4248 36.796 15.7404C37.3813 16.4536 37.9467 17.1831 38.5395 17.8897C39.4811 19.0109 40.385 20.1713 41.4057 21.2157C42.2165 22.0457 42.3503 22.943 42.0975 23.9858C42.0458 24.2002 41.9985 24.4182 41.9179 24.6222C41.7575 25.028 41.4641 25.1189 41.0938 24.8735C40.8484 24.7109 40.626 24.5143 40.388 24.3399C40.2934 24.2704 40.2291 24.1403 40.079 24.1706C39.8196 22.7013 39.181 21.4034 38.2919 20.2194C37.7583 19.5091 37.1352 18.8853 36.4589 18.3117C36.3872 18.2519 36.3288 18.2001 36.2372 18.2644Z" fill="#A76435"/>
<path d="M20.9906 13.0007C21.3513 12.9948 21.7039 13.0251 22.0202 13.2172C22.406 13.4515 22.4563 13.8048 22.1555 14.1381C21.5878 14.7679 19.9766 14.9888 19.2678 14.535C18.8938 14.2948 18.8613 13.8898 19.2131 13.5809C19.7201 13.1374 20.3424 13.0214 20.9906 13.0007Z" fill="#A76435"/>
<path d="M31.2041 13.0044C31.768 12.9948 32.3009 13.1205 32.7843 13.4102C33.0408 13.5639 33.2736 13.7686 33.2381 14.1086C33.2019 14.4575 32.921 14.595 32.6313 14.6711C31.7983 14.8913 31.0038 14.7753 30.2721 14.3171C30.026 14.1633 29.8212 13.946 29.8811 13.623C29.9395 13.3067 30.2034 13.184 30.4783 13.0887C30.7141 13.0081 30.9587 13.0074 31.2041 13.0044Z" fill="#A76435"/>
<path d="M37.1756 28.4501C36.7994 29.405 36.0617 30.0332 35.2066 30.5166C33.69 31.3739 32.0218 31.7708 30.3115 32.0133C30.2391 32.0236 30.1682 32.0443 30.0957 32.0606C29.755 31.8994 29.4158 32.0672 29.0846 32.0953C28.5961 32.1367 28.1068 32.1433 27.6183 32.1766C27.0203 32.218 26.4231 32.2786 25.8208 32.2586C25.1844 32.2372 24.5532 32.1286 23.9146 32.1515C23.7816 32.1566 23.6426 32.1286 23.5214 32.2113C23.4172 32.2291 23.3204 32.2054 23.2287 32.1559C23.0602 32.0746 22.8873 32.1123 22.7151 32.1367C21.2953 31.983 19.9065 31.6821 18.5547 31.2209C17.4105 30.8307 16.3714 30.269 15.5657 29.3355C15.2169 28.9312 14.9774 28.4937 15.0144 27.9349C15.0506 27.385 15.3492 27.079 15.8961 27.0443C16.1001 27.031 16.3152 27.1071 16.5074 26.9815C16.5916 26.9142 16.6884 26.9504 16.7808 26.9489C16.9575 26.9763 17.1304 27.0886 17.3122 26.9682C17.9878 26.8041 18.6714 26.6843 19.3233 26.422C20.5502 25.9282 21.4593 25.0635 22.2583 24.0435C22.6655 23.5232 23.1075 23.0243 23.7469 22.7664C23.8392 22.7132 23.9442 22.708 24.0447 22.6858C24.4202 22.6673 24.7528 22.7982 25.0344 23.0258C25.6803 23.5476 26.1637 24.1566 26.0669 25.0665C26.0344 25.371 26.041 25.6829 26.0654 25.9889C26.1866 27.5498 25.0092 28.844 23.3123 29.0776C22.381 29.2062 21.5044 28.977 20.6182 28.7782C20.0543 28.6518 19.4918 28.5151 18.9272 28.3917C18.6848 28.3385 18.4394 28.3215 18.1932 28.351C17.8437 28.3939 17.5621 28.6178 17.5111 28.8839C17.4556 29.1722 17.6042 29.4604 17.9338 29.6341C18.412 29.8869 18.939 29.946 19.4697 29.977C20.412 30.0325 21.3344 29.8773 22.2531 29.6999C22.7491 29.6038 23.2509 29.5557 23.7498 29.4826C23.8607 29.4663 23.9708 29.4648 24.075 29.5136C24.2221 29.626 24.1371 29.759 24.1001 29.8817C24.0211 30.1426 23.956 30.405 24.0011 30.6799C24.0891 31.2158 24.4882 31.4663 24.9996 31.2823C25.7276 31.0199 26.1977 30.4892 26.4874 29.7841C26.5562 29.6171 26.5613 29.4175 26.7239 29.2948C27.3315 29.2535 27.9146 29.4294 28.5111 29.4885C29.503 29.5861 30.4734 29.8292 31.4631 29.9371C32.2472 30.0229 33.0344 30.0206 33.8067 29.8174C34.0588 29.7509 34.3012 29.6637 34.4912 29.4752C34.8326 29.1367 34.7764 28.6962 34.3581 28.4619C34.0366 28.2815 33.6892 28.3133 33.35 28.3813C32.5059 28.5498 31.6715 28.7612 30.8319 28.9519C29.9294 29.1566 29.0403 29.1847 28.143 28.892C26.9132 28.4914 26.0573 27.2594 26.143 26.0975C26.1785 25.6208 26.1378 25.1389 26.1526 24.6592C26.1807 23.725 27.2273 22.7043 28.1659 22.6843C28.2672 22.7065 28.3736 22.7124 28.4667 22.7649C29.0617 22.9955 29.5059 23.4382 29.8629 23.926C31.1083 25.6296 32.7284 26.6755 34.8393 26.9268C34.8607 26.929 34.8792 26.9534 34.8991 26.9667C35.0654 27.0598 35.2376 27.0155 35.4091 26.9896C35.7639 27.0118 36.1201 27.0206 36.4727 27.0591C36.8659 27.1012 37.0706 27.3643 37.1726 27.7235C37.1386 27.9674 37.1386 28.2091 37.1756 28.4501Z" fill="#A76435"/>
<path d="M24.1078 29.5579C23.1632 29.6326 22.2364 29.8218 21.3037 29.9733C20.3502 30.1285 19.396 30.1721 18.4485 29.9393C18.2475 29.8898 18.0472 29.8181 17.8646 29.7227C17.4788 29.521 17.3177 29.2135 17.3798 28.8558C17.4322 28.5542 17.7789 28.2793 18.1684 28.2371C18.5409 28.1965 18.9008 28.2741 19.2623 28.3524C20.3406 28.586 21.3975 28.9496 22.5062 29.0073C23.9696 29.0834 25.5431 28.4507 25.9053 26.7523C26.0709 25.9747 26.0236 25.1514 25.9208 24.3635C25.8218 23.6045 24.8602 22.8594 24.0398 22.7604C23.9962 22.7279 23.9275 22.7101 23.9689 22.6311C25.3938 22.0797 26.8196 22.0797 28.2445 22.6311C28.2859 22.7101 28.2172 22.7279 28.1736 22.7604C27.0842 22.8934 26.2556 23.8232 26.2556 24.9127C26.2556 25.2815 26.2771 25.6518 26.2519 26.0191C26.1396 27.6562 27.4397 28.7996 28.9681 28.9844C30.0243 29.1115 31.0066 28.7826 32.0125 28.5771C32.6703 28.4426 33.3089 28.1832 33.9984 28.2357C34.5498 28.277 34.9208 28.6776 34.8329 29.1388C34.7686 29.4759 34.5217 29.6577 34.232 29.787C33.7885 29.9844 33.3148 30.0501 32.8351 30.0841C31.9327 30.1492 31.0494 29.9977 30.164 29.8565C29.014 29.6732 27.8602 29.5091 26.7087 29.3362C26.6244 29.2881 26.6163 29.1972 26.5853 29.1181C26.4197 28.6946 26.1558 28.6178 25.7885 28.8868C25.6695 28.974 25.5764 29.0915 25.4559 29.1773C25.3724 29.2371 25.2756 29.2837 25.1839 29.2157C25.0782 29.1374 25.1499 29.0391 25.1861 28.9511C25.2312 28.8395 25.3391 28.7567 25.3428 28.5623C24.9474 28.617 24.7272 28.8838 24.5025 29.1455C24.3783 29.2896 24.3295 29.5069 24.1078 29.5579Z" fill="black"/>
<path d="M13.6283 24.5262C14.2277 25.2165 14.9395 25.3407 15.9617 24.9268C17.1368 24.4508 18.0851 23.66 18.9284 22.7376C20.1509 21.4005 21.1317 19.9171 21.5663 18.1293C21.7318 17.45 21.7614 16.7686 21.4303 16.1174C21.9927 16.2143 22.3128 16.6193 22.5507 17.0746C23.0083 17.9504 22.9706 18.8928 22.7392 19.81C22.0807 22.4168 20.5441 24.3909 18.2654 25.7886C17.4436 26.2926 16.5448 26.5557 15.5596 26.4737C14.6091 26.3946 13.7407 25.6075 13.5921 24.657C13.5832 24.6023 13.5899 24.5624 13.6283 24.5262Z" fill="#FEFEFE"/>
<path d="M30.7908 16.1183C30.388 16.9276 30.4907 17.7554 30.7694 18.5573C31.7102 21.2594 33.3865 23.3674 35.9046 24.7694C36.249 24.9609 36.6267 25.0732 37.0192 25.136C37.6386 25.2351 38.1485 25.0259 38.592 24.6098C38.5595 25.5248 37.6526 26.3873 36.6703 26.4723C35.3363 26.5869 34.2143 26.0629 33.1958 25.2964C31.334 23.8943 30.0391 22.0872 29.47 19.8019C29.2926 19.0902 29.2808 18.3666 29.4404 17.6497C29.5831 17.0067 29.96 16.5203 30.524 16.1803C30.6038 16.1308 30.6821 16.0517 30.7908 16.1183Z" fill="#FEFEFE"/>
<path d="M23.5208 32.2122C23.5355 32.1287 23.5843 32.0785 23.6701 32.0814C24.197 32.1006 24.7225 32.0482 25.251 32.1191C25.8112 32.1945 26.3796 32.1745 26.942 32.1235C27.0987 32.1095 27.2562 32.0755 27.4151 32.0792C28.1638 32.0955 28.9066 32.0459 29.6486 31.9417C29.792 31.9218 30.0004 31.8272 30.0943 32.0615C29.3752 32.145 28.6575 32.2484 27.9302 32.2351C27.8556 32.2337 27.7824 32.2388 27.7248 32.2972C27.3027 32.38 26.8763 32.3342 26.4528 32.3312C25.7972 32.3261 25.1401 32.383 24.4853 32.2972C24.1741 32.1605 23.84 32.2706 23.5208 32.2122Z" fill="#A66139"/>
<path d="M24.4875 32.2971C25.5673 32.2971 26.6471 32.2971 27.727 32.2971C27.7388 32.2993 27.7536 32.2979 27.7624 32.3045C27.7772 32.3163 27.7883 32.3333 27.8009 32.3481C27.7817 32.3562 27.7617 32.3725 27.7425 32.3725C26.6523 32.374 25.5621 32.374 24.472 32.3725C24.4527 32.3725 24.4328 32.357 24.4136 32.3481C24.4387 32.3311 24.4631 32.3141 24.4875 32.2971Z" fill="#DF9F80"/>
<path d="M16.8019 26.9911C16.7036 26.9881 16.6053 26.9852 16.507 26.9822C16.4597 26.9778 16.4124 26.9733 16.3651 26.9682C16.5831 26.9297 16.8012 26.8484 17.0177 26.9689C16.9527 27.0413 16.8773 27.0177 16.8019 26.9911Z" fill="#DF9F80"/>
<path d="M37.1761 28.4501C37.0808 28.2085 37.0808 27.9668 37.1761 27.7258C37.2116 27.9675 37.2094 28.2092 37.1761 28.4501Z" fill="#9F6040"/>
<path d="M16.8029 26.9912C16.8745 26.9838 16.9462 26.9764 17.0179 26.969C17.1162 26.969 17.2145 26.969 17.3128 26.9697C17.1488 27.1109 16.9773 27.0813 16.8029 26.9912Z" fill="#9F6040"/>
<path d="M35.4129 26.9919C35.2385 27.0806 35.067 27.1116 34.903 26.969C35.0722 26.9771 35.2429 26.9845 35.4129 26.9919Z" fill="#9F6040"/>
<path d="M22.715 32.1367C22.8894 32.0503 23.0616 32.0273 23.2286 32.1559C23.0572 32.15 22.8864 32.1434 22.715 32.1367Z" fill="#9F6040"/>
<path d="M15.9143 18.1921C15.986 18.1389 16.0577 18.0864 16.1301 18.0332C16.1663 18.0613 16.1693 18.0923 16.1383 18.1263C16.0895 18.1744 16.04 18.2224 15.9912 18.2705C15.9653 18.2446 15.9394 18.218 15.9143 18.1921Z" fill="#CC8C5A"/>
<path d="M23.9689 22.6313C23.9926 22.6742 24.0162 22.7178 24.0399 22.7607C23.9423 22.7629 23.8448 22.7651 23.7472 22.7673C23.796 22.6809 23.881 22.6543 23.9689 22.6313Z" fill="#322C12"/>
<path d="M28.1742 22.7607C28.1978 22.7178 28.2215 22.675 28.2451 22.6313C28.3353 22.6506 28.4211 22.6772 28.4691 22.7666C28.3708 22.7651 28.2725 22.7629 28.1742 22.7607Z" fill="#322C0C"/>
<path d="M19.6245 16.5713C19.7339 16.5898 19.7457 16.6762 19.762 16.762C19.847 17.221 20.1389 17.4575 20.5853 17.5343C20.6622 17.5476 20.7775 17.541 20.7908 17.6511C20.8063 17.7731 20.6799 17.7708 20.6112 17.7952C20.0731 17.9889 19.8159 18.3769 19.7878 18.9372C19.7819 19.0635 19.8137 19.238 19.6068 19.2328C19.422 19.2276 19.4619 19.0709 19.4552 18.9541C19.4205 18.3836 19.1626 17.9785 18.6038 17.7878C18.5417 17.7664 18.439 17.759 18.4382 17.6681C18.4375 17.555 18.5491 17.5447 18.626 17.5336C19.1086 17.4641 19.4109 17.2165 19.4811 16.7162C19.4915 16.6474 19.5314 16.5742 19.6245 16.5713Z" fill="#FDFDFD"/>
<path d="M16.138 18.1262C16.1351 18.0952 16.1328 18.0642 16.1299 18.0331C16.1779 17.9356 16.2555 17.8875 16.3657 17.8942C16.3139 17.9947 16.2341 18.0686 16.138 18.1262Z" fill="#BF805C"/>
<path d="M32.6081 16.5713C32.7101 16.6016 32.7367 16.6807 32.75 16.7694C32.818 17.2239 33.107 17.4456 33.5372 17.5233C33.631 17.5403 33.7619 17.5439 33.7752 17.6548C33.7907 17.7856 33.6406 17.7745 33.5608 17.8063C33.0434 18.0081 32.7944 18.3932 32.7626 18.9349C32.7552 19.0643 32.7951 19.2365 32.5896 19.2343C32.41 19.2328 32.4329 19.068 32.43 18.9549C32.4123 18.3717 32.1336 17.9859 31.5845 17.7886C31.5231 17.7664 31.4211 17.762 31.4256 17.6644C31.4307 17.5476 31.546 17.5491 31.6192 17.5373C32.0841 17.4634 32.379 17.215 32.4603 16.7405C32.4766 16.6482 32.4987 16.572 32.6081 16.5713Z" fill="#FDFDFD"/>
<path d="M35.9243 17.9683C36.0655 17.9705 36.1542 18.0281 36.1527 18.1819C36.0418 18.1471 35.9812 18.0599 35.9243 17.9683Z" fill="#C68660"/>
<path d="M24.1077 29.5581C24.2887 29.312 24.4358 29.04 24.6642 28.8286C24.8098 28.6948 24.9584 28.5692 25.1505 28.5064C25.2673 28.4679 25.4011 28.4066 25.4876 28.5263C25.56 28.6268 25.4262 28.6948 25.3833 28.7754C25.3146 28.9047 25.2333 29.0274 25.1564 29.1553C25.2643 29.2329 25.3353 29.1856 25.4085 29.108C25.4839 29.0274 25.5593 28.9424 25.6494 28.8818C25.8578 28.7406 26.0537 28.5418 26.3464 28.6682C26.642 28.7961 26.6945 29.0555 26.7078 29.3356C26.523 30.2625 26.0101 30.941 25.152 31.3371C24.4617 31.6564 23.897 31.2758 23.8867 30.5145C23.883 30.1752 24.0286 29.8759 24.1077 29.5581Z" fill="#FE7BA3"/>
</svg>
