<svg width="52" height="52" viewBox="0 0 52 52" fill="none" xmlns="http://www.w3.org/2000/svg">
<circle cx="26" cy="26" r="26" fill="#3A84F2"/>
<path d="M15.8461 38.324C14.3808 37.4208 13.4855 36.1562 12.6746 34.8715C8.58376 28.3599 9.23011 20.8126 14.3085 15.0276C16.4162 12.6269 20.0895 12.1371 22.8033 13.8995C25.6255 15.7341 26.6653 19.2589 25.2361 22.2698C24.2285 24.3935 22.6588 26.172 21.5106 28.2114C19.9931 30.9132 19.2063 33.6712 21.0369 36.5335C22.0807 38.1675 23.5741 39.3518 25.2602 40.2952C26.2558 40.8532 27.3679 41.1061 28.6204 41.6601C27.2635 42.1178 26.0752 41.9693 24.915 41.9211C21.0409 41.7605 18.4877 39.5605 16.7132 36.3408C15.6293 34.3697 15.9063 32.25 16.4764 30.1865C17.2913 27.2519 18.7687 24.6384 20.519 22.1695C21.1092 21.3345 21.5949 20.4794 21.4825 19.4035C21.3099 17.7575 19.7884 16.7538 18.2227 17.2557C17.6085 17.4524 17.0143 17.7374 16.6329 18.2593C13.626 22.3541 11.9199 26.8545 12.6666 32.0292C12.9757 34.169 13.9833 36.0117 15.4687 37.5854C15.6052 37.7299 15.7216 37.8905 15.8461 38.047C15.8581 38.0671 15.8461 38.1113 15.8461 38.324Z" fill="white"/>
<path d="M23.4697 10.3228C29.7284 8.8575 35.2123 12.5469 36.0513 18.0267C36.4046 20.3351 35.5094 22.515 34.586 24.6026C33.759 26.4693 32.7233 28.2237 31.5309 29.8897C30.8204 30.8813 30.2824 31.9532 30.8204 33.2539C31.4547 34.7875 32.9802 35.3495 34.4335 34.5386C35.1159 34.1572 35.7141 33.6393 36.1356 33.001C38.2634 29.7934 39.6484 26.3047 39.7648 22.4227C39.8611 19.2431 38.8977 16.4249 36.4769 14.225C36.3083 14.0684 36.1597 13.8917 36.1116 13.5585C36.4528 13.8195 36.8302 14.0443 37.1232 14.3494C42.86 20.2909 43.5385 28.7938 39.1466 35.1287C38.1991 36.4937 37.1553 37.8225 35.5455 38.5331C32.9802 39.6652 30.6518 39.2436 28.5401 37.4813C26.4726 35.755 25.9507 33.5068 26.4847 30.9697C26.7055 29.9178 27.1792 28.9664 27.7974 28.0631C29.0821 26.1883 30.4069 24.3416 31.3664 22.2621C32.8678 18.9942 32.1652 15.8388 29.3912 13.5224C28.5441 12.8158 27.6971 12.1253 26.7014 11.6155C25.7179 11.1097 24.642 10.8567 23.4697 10.3228Z" fill="white"/>
</svg>
