<svg width="52" height="52" viewBox="0 0 52 52" fill="none" xmlns="http://www.w3.org/2000/svg">
<circle cx="26" cy="26" r="26" fill="#53C0FE"/>
<path d="M34.2933 14.5965C35.0391 14.0979 35.8352 13.7299 36.7286 13.5702C37.2175 13.4826 38.4148 13.2175 38.7099 13.5702C39.6867 14.7376 40.5988 15.9577 41.6081 17.0983C42.3312 17.9155 42.9932 19.0573 43.7763 19.8096C44.6754 20.6738 43.9 21.8603 43.6681 22.9709C43.6243 23.1809 43.57 23.3901 43.5019 23.5936C43.3017 24.1902 42.9758 24.3053 42.4642 23.9486C42.1116 23.703 41.7776 23.4314 41.4355 23.172C41.8084 25.0568 41.99 26.9587 41.9081 28.8809C41.8424 30.4342 41.6098 31.9574 41.1615 33.4532C40.7107 34.9546 39.6195 35.8487 38.3451 36.5873C35.8547 38.0303 33.1486 38.8556 30.3315 39.359C28.5163 39.6833 26.6834 39.7838 24.8504 39.6744C20.7597 39.4304 16.8878 38.4235 13.3475 36.2719C11.8891 35.3858 11.1457 34.0863 10.7793 32.4795C10.0723 29.3746 10.1793 26.2753 10.7736 23.1728C10.4201 23.4395 10.074 23.7192 9.70996 23.9713C9.26327 24.2802 8.62688 24.4618 8.43961 23.9713C8.14695 23.2028 7.80378 22.981 7.87998 22.1654C7.90917 21.8557 7.68699 19.8568 7.87912 19.6307C9.65372 17.5456 11.4559 15.484 13.1502 13.3316C13.7777 12.5347 15.1205 13.3813 16.1355 13.7169C16.7654 13.9253 17.3588 14.2106 17.9141 14.5738C18.4662 14.3606 19.5631 13.7229 20.15 13.6499C21.4601 13.1295 22.6581 13.1776 24.05 13.0001C26.9426 12.6304 32.5 13.0001 35.1 14.2997" stroke="white" stroke-width="1.5" stroke-miterlimit="10"/>
<path d="M34.451 14.3C35.751 13.6504 40.8966 20.5857 41.4374 23.1718C41.8103 25.0567 42.3329 26.6777 42.251 28.5999C42.1846 30.1531 41.6117 31.9573 41.1633 33.453C40.7126 34.9544 39.6214 35.8486 38.347 36.5871C35.8566 38.0301 33.1505 38.8546 30.3333 39.3589C28.5182 39.6831 26.6852 39.7837 24.8523 39.6742C20.7615 39.4294 16.8897 38.4225 13.3494 36.2717C11.8902 35.3857 11.1468 34.0853 10.7811 32.4793C10.0734 29.3744 10.1812 26.2751 10.7755 23.1726C10.8419 22.9124 10.9027 22.6505 10.9749 22.3919C11.4564 20.6684 12.3839 19.2011 13.5877 17.8999C14.0158 17.437 17.7638 14.118 17.8628 14.509C17.8668 14.6817 14.88 16.9206 14.7859 17.0284C13.8253 18.1374 13.0567 19.3616 12.6084 20.7649C12.3295 21.638 11.4911 25.0708 11.701 25.9999" stroke="white" stroke-width="1.5" stroke-miterlimit="10"/>
<path d="M26.7199 27.0954C27.0912 26.2888 27.6801 25.9323 29.25 25.3501C29.25 24.7 23.4 24.6999 23.4 25.4303C24.6833 25.5657 26.3373 26.5555 26.3373 27.8477V29.1424C26.3373 30.4394 25.6628 31.4423 24.4694 31.9506C23.3426 32.4305 22.2084 32.3032 21.0589 32.0486C20.1015 31.8362 19.1635 31.5144 18.1801 31.4374C17.4643 31.3815 16.9892 31.6806 16.9098 32.1678C16.8368 32.6137 17.1765 33.0077 17.8315 33.2282C18.7752 33.546 19.7447 33.5233 20.7127 33.4122C21.9166 33.2736 25.4569 31.9076 26.6656 31.8038C27.957 31.996 29.7478 33.0085 31.0352 33.2249C31.9951 33.3863 32.9525 33.5265 33.9278 33.4592C34.4944 33.4195 35.0579 33.3425 35.5621 33.0563C35.9091 32.8593 36.1604 32.5869 36.0842 32.1427C36.0242 31.7925 35.6659 31.4885 35.2411 31.4406C34.9598 31.409 34.676 31.4106 34.3963 31.4771C33.9253 31.589 33.4535 31.6992 32.9801 31.8038C31.9043 32.0422 30.8423 32.3664 29.7146 32.257C27.9627 32.0867 26.5399 30.7889 26.6599 28.9891C26.6932 28.4922 26.6648 27.9912 26.6656 27.4918C26.6656 27.3573 26.6607 27.2243 26.7199 27.0954Z" stroke="white" stroke-width="1.5" stroke-miterlimit="10"/>
<path d="M19.1931 16.9001C19.4045 16.9317 19.4274 17.0796 19.4588 17.2261C19.6231 18.0107 20.1874 18.4151 21.0503 18.5465C21.1989 18.5692 21.4218 18.5578 21.4475 18.7461C21.4775 18.9546 21.2332 18.9508 21.1003 18.9925C20.0603 19.3235 19.5631 19.9868 19.5088 20.9446C19.4974 21.1606 19.5588 21.4588 19.1588 21.45C18.8016 21.4411 18.8787 21.1733 18.8659 20.9736C18.7987 19.9982 18.3001 19.3058 17.2201 18.9798C17.1 18.9432 16.9015 18.9306 16.9 18.7752C16.8986 18.5818 17.1143 18.5642 17.2629 18.5452C18.1958 18.4264 18.7802 18.0032 18.9159 17.1478C18.9359 17.0303 19.013 16.9052 19.1931 16.9001Z" fill="white"/>
<path d="M33.4931 16.9001C33.7045 16.9317 33.7274 17.0796 33.7588 17.2261C33.9231 18.0107 34.4875 18.4151 35.3504 18.5465C35.499 18.5692 35.7218 18.5578 35.7475 18.7461C35.7775 18.9546 35.5332 18.9508 35.4004 18.9925C34.3603 19.3235 33.8631 19.9868 33.8088 20.9446C33.7974 21.1606 33.8588 21.4588 33.4588 21.45C33.1016 21.4411 33.1788 21.1733 33.1659 20.9736C33.0988 19.9982 32.6002 19.3058 31.5201 18.9798C31.4001 18.9432 31.2015 18.9306 31.2001 18.7752C31.1987 18.5818 31.4144 18.5642 31.563 18.5452C32.4959 18.4264 33.0802 18.0032 33.2159 17.1478C33.2359 17.0303 33.3131 16.9052 33.4931 16.9001Z" fill="white"/>
<path d="M10.4 24.0501C10.4841 25.2035 12.5581 26.9431 13.6595 27.2688C14.5569 27.5355 15.4346 27.3914 16.2739 27.063C18.6315 26.1406 20.3136 24.4334 21.594 22.3084C22.5361 20.7453 23.1848 19.0784 22.9665 17.2013C22.835 16.0695 20.15 13.0002 16.9 14.9503" stroke="white" stroke-width="1.8" stroke-miterlimit="10"/>
<path d="M42.509 24.0501C42.4249 25.2035 40.351 26.9431 39.2496 27.2688C38.3522 27.5355 37.4744 27.3914 36.6352 27.063C34.2775 26.1406 32.5954 24.4334 31.3151 22.3084C30.3729 20.7453 29.7242 19.0784 29.9426 17.2013C30.0741 16.0695 32.759 13.0002 36.009 14.9503" stroke="white" stroke-width="1.8" stroke-miterlimit="10"/>
</svg>
