<svg width="60" height="60" viewBox="0 0 60 60" fill="none" xmlns="http://www.w3.org/2000/svg">
<g clip-path="url(#clip0_20238_510200)">
<circle cx="30" cy="30" r="30" fill="#3784C6"/>
<mask id="mask0_20238_510200" style="mask-type:alpha" maskUnits="userSpaceOnUse" x="0" y="0" width="60" height="60">
<circle cx="30" cy="30" r="30" fill="#3784C6"/>
</mask>
<g mask="url(#mask0_20238_510200)">
<path d="M39.8324 61.0557C38.2133 61.028 36.61 60.6719 35.1193 59.8724C34.8547 59.73 34.6079 59.6943 34.3196 59.7557C31.0419 60.4621 27.7346 60.937 24.3859 61.1448C21.6591 61.315 18.9383 61.3011 16.2154 61.0874C14.7267 60.9707 13.2438 60.7748 11.7847 60.4562C11.3898 60.3691 11.0857 60.5037 10.754 60.6461C8.33916 61.6989 5.84538 61.9126 3.29235 61.2794C1.94377 60.9449 1.57651 59.8645 2.35644 58.7148C2.66249 58.2617 3.02184 57.858 3.44044 57.5117C3.67145 57.3198 3.64973 57.1912 3.43057 57.0111C2.37816 56.1483 1.8174 54.9591 1.31785 53.7421C1.19149 53.4354 1.28626 52.9625 0.99996 52.8081C0.755123 52.6775 0.366148 52.8319 0.04233 52.8319C-2.18095 52.8378 -4.06462 50.4771 -3.72106 48.2431C-3.29457 45.4708 -2.15331 42.9755 -0.907402 40.5139C-0.234099 39.1822 0.480669 37.8722 1.18556 36.5583C1.50741 35.9587 1.8174 35.3473 2.18861 34.7794C2.53414 34.249 2.99223 33.7979 3.31999 33.2478C3.95973 32.1733 4.34673 30.9801 4.92329 29.8739C6.99453 25.8906 9.63838 22.3822 13.2517 19.6594C14.9952 18.3455 16.9282 17.3937 18.9541 16.6101C19.7636 16.2974 20.5692 15.9749 21.3807 15.6662C23.5685 14.8391 25.2705 15.31 26.8343 16.9425C27.6537 17.7993 28.4652 18.6126 29.5216 19.2063C32.1674 20.6963 34.2406 22.8374 36.0334 25.2614C37.5044 27.2501 38.6615 29.4149 39.5757 31.7142C39.781 32.2307 40.0535 32.7234 40.3023 33.2221C40.4504 33.5189 40.6005 33.5209 40.7782 33.23C41.487 32.0664 42.2235 30.9207 43.1614 29.9234C43.2937 29.7829 43.2621 29.6325 43.2799 29.4703C43.3727 28.6233 42.8218 27.9031 42.8257 27.0759C42.8257 27.0265 42.8079 26.977 42.8099 26.9295C42.8257 26.14 42.8356 25.3761 42.03 24.8696C41.797 24.7231 41.6647 24.3729 41.5936 24.0602C41.3567 23.0392 40.8098 22.1329 40.5333 21.1237C40.3754 20.5459 39.939 20.1244 39.4434 19.7702C38.3851 19.0123 37.5439 18.0605 37.0246 16.8515C36.6929 16.0778 36.8529 15.4624 37.5913 15.0607C38.0573 14.8054 38.1225 14.6174 37.8322 14.1485C36.6475 12.229 36.3257 10.0801 36.2625 7.86977C36.2506 7.48588 36.4797 7.30977 36.7561 7.14751C38.8175 5.93649 40.9875 4.98865 43.3134 4.40688C45.1773 3.93989 47.0551 3.71628 48.9684 4.0507C49.3396 4.116 49.7108 4.17734 50.08 4.2466C50.2617 4.28222 50.3367 4.42271 50.3999 4.58497C51.0396 6.18977 51.5826 7.8203 51.8314 9.53987C51.9972 10.6975 51.6596 11.7522 51.2746 12.8029C51.1502 13.1413 51.1561 13.351 51.5826 13.4163C53.3221 13.6815 54.26 14.7936 54.6984 16.4182C54.7793 16.7189 54.8484 17.0237 54.9314 17.3225C55.0617 17.7914 55.0222 18.2228 54.724 18.6304C54.5996 18.8006 54.5463 19.0183 54.4397 19.2043C54.3054 19.4358 54.3706 19.5921 54.5641 19.7544C54.9787 20.1027 55.3756 20.4707 55.7389 20.8764C56.584 21.8242 56.5307 22.8176 55.5632 23.6388C55.3657 23.807 55.3717 24.0009 55.3796 24.2146C55.4289 25.5127 55.4447 26.8127 55.4052 28.1128C55.3697 29.2882 55.1268 30.3944 54.4476 31.3739C54.2383 31.6746 54.2738 31.8191 54.6628 31.7993C54.8859 31.7874 55.0873 31.8646 55.269 31.9774C55.5731 32.1674 55.6402 32.4206 55.4329 32.7293C55.2453 33.0083 54.9787 33.2062 54.6964 33.3685C54.0014 33.7702 53.3044 34.1857 52.5363 34.4252C51.8373 34.6448 51.4207 35.2167 50.8757 35.6263C48.5419 37.3775 45.9711 38.7172 43.3707 40.0093C42.7981 40.2943 42.2215 40.5713 41.641 40.8404C41.3527 40.973 41.2836 41.1234 41.3883 41.4558C42.3183 44.4101 42.9699 47.412 42.8731 50.5404C42.8079 52.6558 42.3992 54.684 41.4021 56.5619C41.1671 57.0052 41.2836 57.1397 41.7022 57.2763C42.265 57.4603 42.7902 57.7314 43.2088 58.1766C43.7537 58.7564 43.8169 59.6726 43.345 60.3058C43.2325 60.4562 43.0903 60.5432 42.9086 60.6026C41.9253 60.9212 40.9164 61.03 39.8324 61.0557Z" fill="#080B0F"/>
<path d="M23.1986 42.4316C22.9616 42.4277 22.7662 42.4811 22.6359 42.3089C22.2192 41.7628 21.5834 41.6045 20.9891 41.3789C16.4438 39.6455 11.8966 37.914 7.34536 36.1925C6.65823 35.9333 6.28308 35.3317 5.78748 34.8647C5.27411 34.3819 4.81208 33.8437 4.31648 33.3411C4.09731 33.1175 4.03413 32.9156 4.16642 32.599C5.96913 28.2496 8.48859 24.391 12.0052 21.2328C14.0152 19.4282 16.3115 18.0846 18.8428 17.1367C19.992 16.7073 21.1036 16.179 22.3002 15.8703C23.8344 15.4726 25.1217 15.9198 26.2275 16.9705C27.0449 17.7482 27.7083 18.7 28.7114 19.2659C29.5249 19.723 30.3305 20.1841 31.0709 20.7599C33.31 22.5012 35.1423 24.6007 36.6646 26.9891C37.6203 28.4891 38.3983 30.0721 39.1032 31.6987C39.2749 32.0944 39.2493 32.3893 38.9768 32.7316C38.1811 33.7329 37.4011 34.748 36.6528 35.7849C36.404 36.1292 36.1078 36.2716 35.7248 36.4082C34.7751 36.7446 33.851 37.1522 32.923 37.548C30.287 38.6739 27.6629 39.8256 25.0823 41.0742C24.6163 41.2998 24.2076 41.6025 23.9173 42.0339C23.7218 42.3287 23.4928 42.491 23.1986 42.4316Z" fill="#5797D1"/>
<path d="M2.59871 35.2344C2.80998 36.4414 3.03112 37.6149 3.21278 38.7942C3.27004 39.1623 3.4201 39.3503 3.78341 39.4076C4.21977 39.4769 4.65416 39.5758 5.08657 39.6649C5.1774 39.6847 5.29785 39.6768 5.32549 39.7955C5.35313 39.9142 5.25638 39.9716 5.16753 40.0112C4.69957 40.2249 4.82397 40.4188 5.13001 40.7156C6.91693 42.4451 8.84601 43.9806 10.9824 45.2589C12.5423 46.1929 14.2028 46.8578 15.966 47.2931C18.1143 47.8254 20.227 48.4824 22.3042 49.2482C22.549 49.3392 22.6932 49.4085 22.5154 49.729C22.4108 49.919 22.4641 50.2119 22.4918 50.4552C22.6063 51.4169 22.7326 52.3786 22.8709 53.3383C22.9202 53.6827 22.8531 53.9636 22.6537 54.2585C21.6605 55.7248 20.6851 57.2029 19.7215 58.689C19.5517 58.9502 19.3582 59.0115 19.0739 59.0115C16.5841 59.0135 14.1337 58.687 11.7011 58.1706C9.44626 57.6897 7.27037 56.9872 5.20899 55.9464C4.12302 55.3983 3.12393 54.7156 2.17419 53.9537C1.72203 53.5916 1.59369 53.0811 1.49497 52.5706C1.16325 50.8668 1.08427 49.1473 1.19682 47.4138C1.38637 44.4971 1.9649 41.6536 2.76259 38.8496C2.80998 38.6814 2.93635 38.4717 2.68954 38.3866C2.421 38.2956 2.37362 38.5488 2.32031 38.7289C1.80299 40.496 1.40019 42.2888 1.10599 44.1073C0.831535 45.7991 0.6795 47.4989 0.691346 49.2126C0.691346 49.3214 0.740709 49.4619 0.628163 49.5311C0.48205 49.6222 0.389249 49.4837 0.290524 49.4045C-0.736214 48.5873 -1.69779 47.6928 -2.68109 46.8242C-2.91408 46.6184 -2.88841 46.4066 -2.81733 46.1573C-2.41651 44.7642 -1.81232 43.4523 -1.2022 42.1463C-0.179407 39.9637 0.975674 37.8484 2.15247 35.7449C2.26305 35.5609 2.34005 35.3353 2.59871 35.2344Z" fill="#E2EFFA"/>
<path d="M38.3399 38.1209C38.7131 38.0616 39.0112 38.2535 39.337 38.2733C39.5641 38.2871 39.6984 38.2773 39.7655 38.0141C40.0696 36.7892 40.4842 35.592 40.6224 34.3276C40.6323 34.2326 40.6145 34.1337 40.6876 34.0486C41.5504 33.0156 42.1349 31.7848 43.0175 30.7638C43.2682 30.4729 43.444 30.2275 43.754 30.7341C43.9791 31.1022 44.4213 31.1872 44.832 31.2525C45.8173 31.4128 46.8006 31.4128 47.7503 31.0725C48.1512 30.928 48.2874 31.0824 48.3526 31.4306C48.3585 31.4623 48.3703 31.494 48.3782 31.5256C48.6152 32.4418 48.6132 32.4378 47.8056 32.9523C47.154 33.3679 46.5301 33.8171 46.0029 34.3889C45.8568 34.5492 45.7225 34.7154 45.6495 34.9173C45.533 35.2339 45.5922 35.4535 45.9772 35.5228C47.1955 35.7385 48.398 35.6276 49.5945 35.3783C49.8808 35.319 50.1671 35.2457 50.5758 35.1508C50.1375 35.7048 49.6143 35.9739 49.1424 36.2787C46.6841 37.8597 44.0699 39.1578 41.4497 40.4401C41.1851 40.5687 41.0588 40.4895 40.966 40.2402C40.81 39.8247 40.6441 39.4151 40.4842 39.0035C40.4171 38.8333 40.348 38.6176 40.1229 38.7027C39.8938 38.7898 39.9827 38.9896 40.0577 39.1638C40.4882 40.1749 40.8574 41.2118 41.1733 42.2645C42.0638 45.2446 42.5989 48.2741 42.3481 51.4026C42.279 52.2713 42.1053 53.1261 41.9414 53.9809C41.7163 55.1405 40.9245 55.7658 39.8978 56.1735C37.5698 57.0995 35.1432 57.6556 32.6968 58.1463C30.5742 58.5717 28.4417 58.9477 26.2955 59.2445C25.9677 59.29 25.8137 59.197 25.6893 58.922C24.9449 57.2776 24.1196 55.6669 23.4759 53.9849C23.1619 53.1637 23.1817 52.2119 23.0573 51.3175C23.0099 50.9752 22.9941 50.6289 22.9448 50.2885C22.8934 49.9323 23.0158 49.7206 23.3831 49.6553C26.2915 49.1349 28.6807 47.536 31.0441 45.9035C33.613 44.1285 36.006 42.1359 38.2352 39.9493C38.5018 39.6881 38.8394 39.4447 38.8987 39.0589C38.9638 38.6552 38.4584 38.5226 38.3399 38.1209Z" fill="#E2EFFA"/>
<path d="M54.9716 26.4097C54.9716 27.6385 55.0111 28.8753 54.5964 30.0606C54.4069 30.6047 54.0791 31.0737 53.8007 31.5704C53.6981 31.7544 53.5361 31.7979 53.3407 31.7801C52.8332 31.7346 52.3258 31.703 51.8203 31.6476C51.3879 31.602 50.9752 30.7848 51.1687 30.3851C51.2378 30.2406 51.376 30.2505 51.5004 30.2169C51.8321 30.1278 52.1619 30.0309 52.4897 29.924C52.6101 29.8844 52.7582 29.829 52.7226 29.6569C52.6812 29.4471 52.5015 29.4768 52.3672 29.5105C51.763 29.6608 51.1746 29.8647 50.5547 29.9577C49.3522 30.1358 48.1912 30.5018 47.0124 30.7868C46.1732 30.9886 45.3479 30.8758 44.5226 30.7195C44.3231 30.6819 44.1691 30.5652 44.0566 30.3871C43.9065 30.1476 43.7959 29.8943 43.7446 29.6173C43.5946 28.8218 43.5985 28.804 44.3844 28.8456C46.0311 28.9346 47.5317 28.5013 48.9198 27.6266C49.2653 27.409 49.6405 27.2368 49.9959 27.033C50.1341 26.9539 50.3197 26.8529 50.217 26.6551C50.1143 26.4592 49.9327 26.5462 49.7885 26.6274C49.1863 26.9598 48.596 27.318 47.9839 27.6306C46.7281 28.2698 45.4071 28.5705 43.9895 28.3588C43.6301 28.3054 43.482 28.0877 43.407 27.7869C43.2569 27.1933 43.1997 26.5917 43.2214 25.9783C43.2293 25.7329 43.3142 25.6281 43.5669 25.6142C45.34 25.5212 46.9867 24.8801 48.6769 24.423C48.8566 24.3735 49.0698 24.3043 48.983 24.0727C48.8961 23.8412 48.6809 23.9461 48.513 23.9975C47.1486 24.417 45.7803 24.8187 44.3804 25.0997C43.1167 25.353 42.4217 25.0305 42.0426 23.9896C41.8294 23.4039 41.6655 22.8004 41.5431 22.1869C41.4917 21.9317 41.547 21.6962 41.6438 21.4667C41.7681 21.1718 41.936 21.0333 42.2341 21.2965C42.5599 21.5814 42.8936 21.5577 43.2786 21.3657C44.6588 20.6712 46.0706 20.0677 47.6403 19.9252C47.9779 19.8955 48.2998 19.7273 48.5683 19.5017C48.6473 19.4364 48.7282 19.3315 48.6374 19.199C48.5723 19.102 48.4874 19.0486 48.3926 19.1198C47.8062 19.5591 47.0914 19.5413 46.422 19.6699C45.3104 19.8817 44.3113 20.3783 43.3102 20.8651C42.8758 21.0768 42.5777 21.0373 42.2164 20.7088C41.8136 20.3447 41.3713 20.0677 41.2706 19.4562C41.158 18.7775 41.3081 18.2491 41.7188 17.6773C42.6389 16.399 44.0013 15.9142 45.3736 15.4096C46.3292 15.0574 47.3244 14.8357 48.3018 14.5607C48.594 14.4776 48.8882 14.5152 49.1804 14.5745C49.6207 14.6636 50.0591 14.6774 50.4974 14.5646C50.7936 14.4875 51.151 14.5033 50.9851 13.9928C50.9081 13.7612 51.1707 13.7988 51.2892 13.8226C52.3416 14.0264 53.3407 14.3193 53.8205 15.4353C54.0791 16.0388 54.322 16.6503 54.478 17.2894C54.5728 17.6793 54.5964 18.0711 54.318 18.4134C54.2865 18.451 54.2628 18.4965 54.241 18.54C53.7079 19.571 53.7217 19.5591 54.5688 20.3388C55.0368 20.7682 55.5462 21.1679 55.7831 21.8031C56.0201 22.4402 55.9134 22.8597 55.3428 23.2456C54.7978 23.6156 54.2884 24.0272 53.8461 24.516C53.7356 24.6367 53.5895 24.7831 53.7494 24.9375C53.9113 25.0938 54.0396 24.9315 54.1621 24.8227C54.3733 24.6347 54.553 24.2251 54.8215 24.3478C55.0447 24.4487 54.9578 24.884 54.9716 25.1729C54.9854 25.5865 54.9716 25.9981 54.9716 26.4097Z" fill="#5797D1"/>
<path d="M26.2089 59.7288C30.1007 59.1451 33.9825 58.506 37.7696 57.4097C38.745 57.1287 39.7086 56.8002 40.6148 56.3273C40.7116 56.2759 40.7985 56.1809 40.9821 56.2462C40.836 56.7666 40.5082 57.1802 40.2002 57.6036C39.987 57.9657 39.6157 58.1043 39.2584 58.2566C38.8556 58.4288 38.4508 58.597 38.048 58.7672C37.7499 58.8918 37.4636 59.0561 37.1555 58.7474C37.0529 58.6445 36.8515 58.6623 36.6994 58.7513C33.5876 59.4894 30.458 60.1068 27.2692 60.4194C24.0804 60.7321 20.8896 60.928 17.685 60.7222C14.1882 60.4966 10.7388 60.0079 7.4216 58.8087C7.29918 58.7652 7.18268 58.7019 7.06421 58.6465C6.38696 58.504 5.87162 58.0192 5.23583 57.7857C4.98112 57.6927 4.87055 57.4236 4.65533 57.2791C3.57726 56.7349 2.83879 55.8801 2.39453 54.7344C2.67886 54.9323 2.95726 55.138 3.24554 55.328C5.34443 56.7171 7.65656 57.6195 10.0694 58.2705C12.7567 58.9947 15.5052 59.3351 18.2774 59.4815C18.4906 59.4934 18.7058 59.4716 18.9171 59.5013C19.5391 59.5864 19.9241 59.3014 20.2282 58.779C20.6073 58.13 21.0575 57.5225 21.4563 56.8833C21.6084 56.64 21.7801 56.5489 22.0625 56.5964C22.6311 56.6954 23.2037 56.729 23.7744 56.6103C23.9916 56.5648 24.1219 56.6657 24.2088 56.8438C24.3233 57.0792 24.4279 57.3207 24.5346 57.5601C24.6274 57.8431 24.7636 58.1062 24.9156 58.3635C25.0163 58.591 25.119 58.8186 25.2197 59.0462C25.2947 59.155 25.2928 59.2935 25.352 59.4103C25.587 59.8575 25.6877 59.897 26.2089 59.7288Z" fill="#E1EFFA"/>
<path d="M23.2919 48.8444C23.1655 49.1076 22.9878 49.0344 22.7903 48.9552C21.7142 48.512 20.6125 48.14 19.4969 47.8095C17.787 47.3029 16.0514 46.8775 14.3533 46.3294C12.0965 45.6012 10.1575 44.2833 8.29358 42.8487C7.409 42.168 6.57379 41.4319 5.75635 40.672C5.58457 40.5137 5.48584 40.3712 5.72081 40.205C6.5343 39.6292 7.1385 38.8456 7.79601 38.1154C8.03097 37.8522 8.18893 37.8285 8.4851 38.0442C10.4399 39.4748 12.4124 40.8778 14.3731 42.3005C17.011 44.214 19.641 46.1335 22.275 48.0509C22.5652 48.2626 22.8575 48.4744 23.1477 48.6881C23.2089 48.7316 23.2997 48.7494 23.2919 48.8444Z" fill="#E2EFFA"/>
<path d="M38.7268 14.6267C37.9113 13.6868 37.471 12.5589 37.1689 11.3756C36.8964 10.307 36.7246 9.22065 36.7227 8.11055C36.7227 7.81571 36.8016 7.63168 37.0702 7.47733C39.3724 6.14363 41.8011 5.13049 44.4153 4.61798C46.0699 4.29346 47.7423 4.25982 49.4068 4.60017C49.6398 4.64766 49.8985 4.67734 50.013 4.95635C50.71 6.66405 51.3359 8.38956 51.3793 10.2655C51.3912 10.7463 51.332 11.2153 51.1542 11.6664C50.9805 11.8683 51.0516 12.1849 50.8265 12.3748C50.6251 12.266 50.7001 12.078 50.7139 11.9375C50.8383 10.6434 50.6429 9.34927 50.708 8.05712C50.7218 7.78207 50.5619 7.6396 50.3447 7.53076C49.1679 7.21416 47.9891 7.41006 46.8242 7.56638C44.8102 7.83945 42.81 8.2174 40.8948 8.92581C39.7732 9.34136 38.7544 9.91323 38.1285 11.0095C37.9508 11.3201 37.9212 11.6071 38.0535 11.9454C38.4464 12.9447 38.9617 13.8688 39.6232 14.7118C39.9529 15.2144 40.4268 15.5607 40.9046 15.903L40.9027 15.9011C40.9876 15.998 41.1297 16.0257 41.2048 16.1464C41.0962 16.3522 40.9362 16.2473 40.7881 16.2177H40.7901C40.3676 15.9485 39.9312 15.7012 39.5225 15.4064C39.2105 15.1828 39.0012 14.876 38.7268 14.6267Z" fill="white"/>
<path d="M23.918 48.9695C24.9348 47.992 25.9162 47.0501 26.8935 46.1062C29.954 43.1578 33.0401 40.2351 36.0157 37.1996C36.3237 36.885 36.5113 36.8355 36.8095 37.2036C37.2537 37.7517 37.7355 38.2682 38.2271 38.7747C38.468 39.0221 38.3377 39.1705 38.1699 39.3486C37.2202 40.3499 36.1835 41.2581 35.1292 42.1446C32.4794 44.3747 29.7368 46.4663 26.6388 48.0513C25.8925 48.4332 25.1224 48.7498 24.3208 48.9912C24.2122 49.0269 24.1036 49.0664 23.918 48.9695Z" fill="#E2EFFA"/>
<path d="M8.07812 37.0156C8.89162 37.1878 9.58072 37.5301 10.2915 37.7972C13.5396 39.0182 16.7758 40.2628 20.0219 41.4877C20.3279 41.6025 20.4404 41.6856 20.2687 42.0338C19.9745 42.6354 19.7375 43.2666 19.5026 43.8939C19.3959 44.1789 19.2242 44.2481 18.9754 44.1353C17.4945 43.4665 15.9366 42.9856 14.6137 41.9507C12.7458 40.4904 10.7852 39.1468 8.86397 37.7557C8.58952 37.5578 8.30519 37.3698 8.07812 37.0156Z" fill="#E1EFF9"/>
<path d="M35.4788 37.0681C34.6041 38.0535 33.6622 38.8945 32.7698 39.7869C31.8418 40.715 30.9493 41.6885 29.9403 42.5177C29.1031 43.2043 28.1198 43.7128 27.1938 44.2926C27.0477 44.3837 26.9272 44.3282 26.8443 44.1561C26.4316 43.2973 25.9321 42.488 25.4404 41.6747C25.3417 41.5124 25.3516 41.4531 25.5451 41.362C28.7398 39.8463 31.98 38.4354 35.2418 37.074C35.2833 37.0522 35.3386 37.0681 35.4788 37.0681Z" fill="#E1EFF9"/>
<path d="M46.0859 35.0706C46.5026 34.4592 47.008 34.0772 47.5095 33.6993C47.8887 33.4144 48.2915 33.163 48.6923 32.9098C48.9924 32.7198 49.1425 32.4922 48.9924 32.1301C48.949 32.0272 48.9509 31.9045 48.9272 31.7917C48.7041 30.7845 48.7021 30.7845 49.721 30.5886C50.5996 30.4185 50.5996 30.4185 50.8247 31.2792C50.9945 31.9303 51.1782 32.0905 51.8416 32.1281C52.742 32.1776 53.6423 32.2132 54.5427 32.2647C54.6967 32.2726 54.9179 32.2291 54.9791 32.4071C55.0521 32.6169 54.8448 32.7198 54.6987 32.8168C53.9148 33.3253 53.0776 33.7369 52.2069 34.0693C51.1703 34.4671 50.1258 34.8391 49.02 35.0132C48.0762 35.1616 47.1344 35.1814 46.0859 35.0706Z" fill="white"/>
<path d="M4.65543 57.2773C5.45905 57.7325 6.2607 58.1896 7.06432 58.6447C6.90833 58.6961 6.67337 58.4804 6.59439 58.7416C6.50948 59.0226 6.79579 59.0543 6.95375 59.1196C7.89755 59.5015 8.87296 59.7865 9.8602 60.0358C10.0498 60.0833 10.2492 60.109 10.421 60.3029C9.50874 60.7323 8.56099 60.9836 7.58756 61.0707C6.27847 61.1855 4.96345 61.2171 3.66226 60.9361C3.43125 60.8867 3.22195 60.8095 3.02055 60.6987C2.36897 60.3445 2.2189 59.8795 2.57431 59.2225C2.89813 58.6229 3.37793 58.148 3.89723 57.7127C4.03741 57.5959 4.17563 57.5425 4.34346 57.6474C4.46785 57.7265 4.60015 57.8354 4.74034 57.7028C4.92594 57.5306 4.6811 57.4218 4.65543 57.2773Z" fill="#5796D1"/>
<path d="M2.98438 34.7115C3.14628 34.3216 3.37335 33.9041 3.69124 33.5578C3.8571 33.3778 3.96965 33.639 4.06837 33.7399C5.08327 34.7669 6.08631 35.8038 7.09923 36.8308C7.73896 37.4798 7.74291 37.4758 7.13871 38.1645C5.99153 39.4764 5.98758 39.4665 4.17697 39.0213C3.84328 38.9382 3.67348 38.8056 3.61819 38.4613C3.43259 37.3116 3.22526 36.1659 3.02781 35.0182C3.01399 34.939 3.00609 34.8579 2.98438 34.7115Z" fill="#E1EFF9"/>
<path d="M36.6975 58.7508C36.7607 58.6162 36.9226 58.6044 36.9898 58.6479C37.5466 59.01 38.0086 58.6479 38.4706 58.446C39.0571 58.1888 39.6849 58.0087 40.2003 57.6031C40.1904 57.7614 39.9515 57.9454 40.2062 58.0701C40.4195 58.175 40.532 57.9751 40.6209 57.8207C40.7808 57.5378 41.0079 57.5041 41.2902 57.5971C41.8845 57.793 42.465 58.0206 42.8935 58.5034C43.4997 59.1901 43.2588 60.0627 42.3801 60.2804C40.0562 60.8582 37.8033 60.6544 35.5898 59.6155C35.9512 59.2771 36.3994 59.3543 36.7686 59.2039C36.9424 59.1327 37.2425 59.1663 37.2208 58.9229C37.1892 58.6024 36.8772 58.8082 36.6975 58.7508Z" fill="#5796D1"/>
<path d="M42.3477 11.0565C43.9055 10.7062 45.4772 10.4134 47.0154 9.98397C47.9769 9.71683 48.9168 9.39231 49.7639 8.8521C50.0877 8.6463 50.1588 8.73139 50.1805 9.09153C50.2496 10.2016 50.3898 11.3098 50.1746 12.4218C50.1311 12.6494 50.0976 12.871 49.9751 13.0709C49.829 12.7701 49.6098 12.6059 49.2683 12.503C48.7273 12.3387 48.3501 11.9172 48.0283 11.4562C47.9236 11.3157 47.7755 11.2939 47.6156 11.3038C46.4388 11.0525 45.4595 11.4621 44.5709 12.1982C44.4189 12.3229 44.2432 12.4179 44.0595 12.4891C43.4771 12.7167 43.015 12.497 42.8373 11.8935C42.7445 11.571 42.7169 11.2148 42.3477 11.0565Z" fill="#434EA0"/>
<path d="M0.112925 52.3839C-1.85565 52.4136 -3.6011 50.3715 -3.26741 48.4263C-3.21805 48.1354 -3.14499 47.8505 -3.09761 47.5596C-3.02652 47.1045 -2.83105 47.3182 -2.65334 47.4725C-1.84972 48.1691 -1.09744 48.9388 -0.232612 49.5463C0.486105 50.0529 0.825718 50.6287 0.881004 51.4994C0.93629 52.3681 1.00342 52.3701 0.112925 52.3839Z" fill="#5796D1"/>
<path d="M47.475 9.41878C45.7552 9.88578 44.0256 10.2993 42.2702 10.6021C42.134 10.1173 41.7588 9.89369 41.3264 9.72351C41.1369 9.64832 40.9078 9.66415 40.7617 9.48408C41.6187 9.00917 42.5802 8.86868 43.5082 8.63914C45.3208 8.18995 47.1611 7.91292 49.027 7.812C49.3409 7.79419 49.6469 7.8496 49.953 7.89907C50.0794 7.91886 50.1702 7.97822 50.1682 8.11871C50.1682 8.20182 50.1564 8.28889 50.0537 8.30868C49.2698 8.46105 48.7071 9.10811 47.9252 9.26246C47.631 9.01511 47.5718 9.0349 47.475 9.41878Z" fill="#394A9D"/>
<path d="M37.2734 16.136C37.3386 15.6571 37.7809 15.4731 38.1659 15.2337C38.5095 15.0199 38.6734 15.297 38.8649 15.483C39.5481 16.1498 40.3438 16.6247 41.2619 16.8761C41.5976 16.9671 41.7318 17.072 41.4317 17.3727C40.9973 17.8061 40.6715 18.2573 40.7505 18.9538C40.8216 19.5771 40.9184 20.1569 41.3685 20.6179C41.641 20.897 41.3547 21.079 41.2363 21.2512C41.1415 21.3877 41.0349 21.2155 41.0052 21.1186C40.7407 20.2736 40.1404 19.7295 39.4493 19.215C38.545 18.5422 37.8441 17.6715 37.3978 16.6168C37.3603 16.5258 37.3228 16.4348 37.2932 16.3418C37.2794 16.2963 37.2833 16.2448 37.2734 16.136Z" fill="#5796D1"/>
<path d="M40.1991 34.1348C40.0668 35.0411 39.897 35.8603 39.6423 36.6597C39.5298 37.0139 39.591 37.5047 39.2731 37.6907C38.9592 37.8747 38.5485 37.5779 38.1773 37.568C37.4585 37.5502 37.2413 36.9269 36.8366 36.5331C36.724 36.4243 36.8208 36.3313 36.8938 36.2363C37.7152 35.1519 38.5366 34.0675 39.3501 32.9772C39.4567 32.8328 39.5713 32.807 39.6522 32.9535C39.8733 33.3532 40.1103 33.7489 40.1991 34.1348Z" fill="#E1EEF9"/>
<path d="M23.3633 45.0585C24.1116 44.823 24.4907 45.2742 24.7751 46.0736C25.2312 47.3539 25.2963 46.9759 24.3821 47.8783C23.7069 48.5451 23.7009 48.5332 22.925 47.9535C22.4787 47.621 22.0266 47.2965 21.5705 46.9799C21.3592 46.8335 21.294 46.6732 21.4322 46.4417C21.5073 46.315 21.5626 46.1765 21.6277 46.0439C22.1095 45.0565 22.1095 45.0565 23.3633 45.0585Z" fill="#E0EDF8"/>
<path d="M46.2282 14.6331C45.4029 14.9279 44.5776 15.2208 43.7502 15.5156C43.6851 15.1198 43.3968 14.8191 43.0434 14.7795C42.6978 14.7419 42.0542 15.106 41.9199 15.3692C41.7896 15.6264 42.1647 15.7075 42.0778 15.9311C41.76 15.9094 41.5151 15.7392 41.292 15.5294C41.0649 15.1555 41.1281 14.8191 41.5052 14.5143C41.7896 14.2828 42.1252 14.1423 42.4826 14.0671C42.8183 13.9979 43.1184 13.9207 43.4008 13.6654C43.7423 13.3548 43.8924 13.7466 44.0642 14.0335C44.2478 13.8712 44.4295 13.7149 44.6921 13.7268C44.8856 13.7347 44.9744 13.5764 45.0317 13.4161C45.4068 12.3436 46.3013 12.0408 47.2925 11.8786C47.5255 11.841 47.6716 11.9459 47.7229 12.1774C47.8355 12.674 48.1988 12.8541 48.6569 12.9095C48.9215 12.9412 49.1801 12.9907 49.4052 13.1331C49.6678 13.2993 49.7409 13.5111 49.5039 13.7644C49.1564 13.4497 48.7694 13.3112 48.2916 13.4319C48.0013 13.5051 47.8019 13.2895 47.6203 13.0995C47.3024 12.771 46.9667 12.4584 46.4672 12.6404C45.9558 12.8264 45.7149 13.2439 45.6517 13.7723C45.6043 14.1522 45.4621 14.4926 45.1857 14.7755C45.16 14.827 45.2884 14.829 45.2272 14.8032C45.5273 14.5638 45.8393 14.3719 46.2282 14.6331Z" fill="#C2B7DA"/>
<path d="M18.125 44.4622C18.5495 44.3909 18.8457 44.5849 19.1735 44.6759C19.4795 44.761 19.6987 44.7313 19.8053 44.3593C19.908 44.0011 20.0837 43.6627 20.2259 43.3145C20.291 43.1542 20.2969 42.9167 20.5359 42.9345C20.7629 42.9523 21.0058 43.0454 21.0946 43.2729C21.2941 43.7735 21.4757 44.2821 21.6258 44.7986C21.6988 45.0518 21.4994 45.2675 21.3691 45.4654C21.1736 45.7642 21.1855 46.2945 20.8498 46.3578C20.5398 46.4172 20.2594 46.0096 19.9712 45.7998C19.3571 45.3526 18.741 44.9094 18.125 44.4622Z" fill="#DCE9F3"/>
<path d="M23.7001 42.8438C25.3389 42.8536 24.9598 42.8121 24.48 44.0845C24.3161 44.5178 24.0595 44.6939 23.5935 44.6385C23.2381 44.597 22.8728 44.5989 22.5154 44.6346C22.1482 44.6702 21.9941 44.5 21.8717 44.1874C21.4215 43.0298 21.4176 43.0238 22.624 42.9288C22.9834 42.9011 23.3427 42.8715 23.7001 42.8438Z" fill="#DFEDF8"/>
<path d="M41.3213 11.2523C41.5227 11.1415 41.7478 11.1831 41.9611 11.1554C42.121 11.1158 42.281 11.0762 42.4211 11.2068C42.5929 11.652 42.508 12.0696 42.3145 12.4891C42.0914 12.9719 42.1329 13.0352 42.6581 13.1163C42.82 13.1421 42.978 13.1816 43.1418 13.2054C43.7697 13.2984 44.2989 13.1757 44.7214 12.6493C44.9564 12.3585 45.2289 12.0913 45.5369 11.8677C46.1016 11.4561 46.7453 11.5175 47.385 11.5392C47.466 11.5511 47.5371 11.5808 47.6002 11.6342C47.6299 11.6817 47.6318 11.7312 47.6042 11.7807C47.3436 11.8638 47.0889 12.0082 46.8104 11.9865C45.997 11.9212 45.5073 12.398 45.0768 12.9838C44.9505 13.1539 44.8498 13.3459 44.6859 13.4844C44.5082 13.6348 44.289 13.8188 44.0738 13.7278C43.4657 13.4705 42.9049 13.7931 42.3264 13.8287C41.5563 13.8762 40.9936 14.5213 40.8968 15.2495C40.7172 15.2099 40.6145 15.0694 40.5 14.9447C40.2591 14.6677 40.2551 14.3966 40.4308 14.0642C40.7172 13.522 40.5829 13.2944 39.9293 13.2074C39.5364 13.1539 39.1494 13.1361 38.9144 12.7503C38.8434 12.586 38.7703 12.4198 38.6992 12.2556C39.4357 12.5306 40.2097 12.5702 40.9798 12.6038C41.5741 12.6296 41.9868 12.2635 42.0993 11.7154C42.1348 11.5392 42.119 11.4225 41.9098 11.4166C41.7024 11.3987 41.4773 11.4482 41.3213 11.2523Z" fill="#7973B4"/>
<path d="M25.5574 46.742C25.2731 46.083 25.0124 45.4855 24.7577 44.8859C24.6886 44.7236 24.7459 44.5673 24.8189 44.4149C24.9729 44.0904 25.1269 43.7639 25.2592 43.4295C25.3303 43.2554 25.3876 43.0812 25.6028 43.0634C25.7983 43.0476 25.822 43.2415 25.8911 43.3583C26.1004 43.7105 26.3077 44.0627 26.4834 44.4327C26.7598 45.0105 26.8053 45.0363 27.3956 44.7375C27.4924 44.688 27.5911 44.6445 27.7807 44.5534C27.0521 45.3687 26.3077 46.0197 25.5574 46.742Z" fill="#DDE9F4"/>
<path d="M42.3776 11.2688C42.267 11.1244 42.1011 11.1917 41.9609 11.1561C42.0715 11.0532 42.2077 11.0472 42.3479 11.0591C42.7053 11.0373 42.8376 11.1877 42.9008 11.5617C43.0647 12.5274 43.5642 12.7213 44.3797 12.1672C45.0254 11.7259 45.6355 11.2411 46.445 11.1046C46.8814 11.0294 47.2802 11.255 47.7047 11.1778C47.8074 11.3025 47.9121 11.4252 48.1036 11.3638C48.5321 11.8803 48.9447 12.4027 49.6911 12.4838C50.0327 12.5214 49.9557 12.838 49.9794 13.0735C49.9892 13.1606 49.9616 13.2279 49.8767 13.2635C49.7049 13.0359 49.4838 12.9053 49.2014 12.8262C48.5321 12.6382 48.0384 12.187 47.6001 11.6666C47.5349 11.6666 47.4718 11.6646 47.4066 11.6646C46.2732 11.344 45.4321 11.8308 44.739 12.6639C44.2395 13.2635 43.6254 13.3624 42.9205 13.1705C42.3815 13.0221 42.2393 12.7628 42.3934 12.2266C42.4862 11.9021 42.5454 11.5835 42.3776 11.2688Z" fill="#5F5EA8"/>
<path d="M40.8949 15.2543C40.6816 14.9733 40.7488 14.7457 40.9758 14.4885C41.4971 13.8988 42.1112 13.5822 42.9167 13.6337C43.3156 13.6594 43.7065 13.5347 44.1232 13.6198C44.3917 13.6752 44.6207 13.4298 44.7787 13.1845C44.9998 12.8421 45.2447 12.5295 45.5606 12.2564C45.8686 11.9913 46.1845 11.831 46.5775 11.8706C46.9289 11.9062 47.2527 11.7499 47.5963 11.7716C47.6812 11.7835 47.7562 11.8191 47.8017 11.8884C48.1768 12.4484 48.7257 12.7254 49.3615 12.8738C49.6972 12.953 49.9361 13.1192 49.7623 13.5248C49.6656 13.6614 49.6814 13.8771 49.4701 13.9305C49.4227 13.8672 49.4227 13.8058 49.48 13.7484C49.6597 13.5169 49.5708 13.3507 49.3418 13.2379C49.1206 13.1291 48.8896 13.0618 48.6369 13.0479C48.0248 13.0143 47.7483 12.7848 47.6022 12.207C47.5726 12.0882 47.5351 11.922 47.4166 11.9834C46.8954 12.2446 46.2379 12.0823 45.7837 12.5433C45.4915 12.8402 45.2585 13.1667 45.1361 13.5644C45.1005 13.6792 45.067 13.8157 44.9623 13.8454C44.6484 13.9364 44.2416 13.8058 44.1113 14.2985C44.0916 14.3718 43.8724 14.2095 43.8586 14.0453C43.8448 13.8771 43.8467 13.697 43.6315 13.6673C43.442 13.6396 43.3887 13.792 43.3413 13.9384C43.2741 14.1383 43.1043 14.1343 42.9365 14.1402C42.5179 14.1521 42.1349 14.2847 41.7735 14.4885C41.3589 14.722 41.1496 15.0465 41.2878 15.5373C41.1239 15.4878 40.9975 15.3889 40.8949 15.2543Z" fill="#A096C7"/>
<path d="M41.3221 11.2501C41.5413 11.258 41.7584 11.2659 41.9776 11.2718C42.2501 11.8457 42.0566 12.2731 41.4642 12.4176C41.1404 12.4967 40.8186 12.5066 40.4928 12.4334C40.1413 12.3542 39.7899 12.3087 39.4246 12.3542C38.9665 12.4136 38.7 12.1366 38.5203 11.7507C38.3268 11.1967 38.7177 10.9018 39.0396 10.5753C39.6675 9.80952 40.4079 10.2983 41.1108 10.3952C41.2234 10.4111 41.3221 10.512 41.3023 10.6426C41.2826 10.7752 41.1681 10.8068 41.0437 10.8187C40.4928 10.8642 39.9636 11.0126 39.4305 11.1452C39.3693 11.163 39.3061 11.1828 39.2449 11.1986C39.1126 11.2323 38.9744 11.2778 39.0099 11.448C39.0494 11.6359 39.2074 11.6399 39.3594 11.6122C40.013 11.4955 40.6666 11.3728 41.3221 11.2501Z" fill="#CCBCDB"/>
<path d="M49.4831 13.7458C49.4792 13.8071 49.4772 13.8685 49.4733 13.9278C49.4338 14.0228 49.3528 14.1356 49.2699 14.1118C48.5867 13.9239 47.9687 14.2662 47.3191 14.3355C47.2302 14.3928 47.1355 14.377 47.0387 14.3671C46.936 14.2464 47.0367 14.1791 47.1216 14.1494C47.4849 14.0228 47.4849 13.7636 47.3704 13.4747C47.25 13.168 47.0565 12.9107 46.6892 12.9404C46.3555 12.9681 46.1601 13.1996 46.1107 13.5222C46.0574 13.8645 46.1443 14.1732 46.4286 14.4027C46.4977 14.5967 46.2785 14.5393 46.2292 14.6323H46.2311C45.8145 14.5036 45.4749 14.8836 44.9062 14.8222C45.6467 14.3473 45.386 13.5499 45.7888 13.0017C46.2825 12.3329 46.9459 12.2399 47.5244 12.8237C47.8384 13.1403 48.101 13.449 48.6519 13.2649C48.9994 13.1482 49.3686 13.3005 49.4831 13.7458Z" fill="#D5CFE7"/>
<path d="M42.0792 15.9288C41.6093 15.5231 41.6508 15.2204 42.2293 14.8978C42.715 14.6267 43.1672 14.512 43.6707 14.9414C43.9333 15.165 43.9491 15.2877 43.7516 15.5132C43.4377 15.6795 43.1218 15.8417 42.8098 16.0099C42.5432 16.1524 42.3043 16.1069 42.0792 15.9288Z" fill="#EBDDEA"/>
<path d="M23.1408 54.457C23.3678 54.9636 23.5594 55.4128 23.7687 55.8521C23.897 56.1232 23.7983 56.2063 23.5357 56.2023C23.1289 56.1984 22.7202 56.1984 22.3134 56.1984C22.0508 56.1984 21.9916 56.0836 22.1338 55.8679C22.4398 55.4049 22.7064 54.9181 23.1408 54.457Z" fill="#CDD7E1"/>
<path d="M38.918 12.75C39.1865 12.94 39.4629 13.0884 39.8144 13.0508C40.0454 13.027 40.2567 13.1339 40.464 13.2269C40.772 13.3634 40.8668 13.5672 40.6851 13.8858C40.4976 14.2123 40.2626 14.5428 40.5035 14.9465C39.8085 14.335 39.3168 13.5752 38.918 12.75Z" fill="#5D5BA6"/>
<path d="M38.5216 11.7569C38.8414 12.1547 39.2087 12.3229 39.7457 12.1824C40.0024 12.1151 40.3223 12.2299 40.5987 12.313C40.9857 12.4317 41.3569 12.3288 41.6965 12.216C42.1586 12.0617 41.9335 11.6085 41.9769 11.2761C42.3205 11.2464 42.3067 11.472 42.2494 11.6896C42.0993 12.2615 41.7874 12.8749 40.7587 12.7463C40.3243 12.6929 39.8899 12.6533 39.4535 12.6335C39.1593 12.6197 38.9105 12.4634 38.6993 12.2556C38.6065 12.1012 38.5038 11.9508 38.5216 11.7569Z" fill="#A597C8"/>
<path d="M39.432 11.1498C39.896 10.9025 40.4133 10.8669 40.9168 10.7719C41.0353 10.7501 41.2189 10.7936 41.211 10.6096C41.2071 10.4731 41.0471 10.485 40.9346 10.477C40.8062 10.4671 40.6601 10.4889 40.5496 10.4375C40.0145 10.1901 39.511 10.1941 39.0391 10.578C39.2385 10.3088 39.505 10.1248 39.8071 9.9863C40.3106 9.62814 40.8793 9.84976 41.4124 9.84185C41.6928 9.83789 41.8034 10.1624 41.833 10.4256C41.8685 10.7303 41.5605 10.6789 41.4025 10.7818C40.747 10.9064 40.0895 11.0271 39.432 11.1498Z" fill="#A194C6"/>
<path d="M41.404 10.7845C41.4632 10.6123 41.8917 10.7073 41.71 10.3591C41.5797 10.1077 41.5067 9.85644 41.0881 9.96725C40.6833 10.0761 40.2371 9.82676 39.8086 9.98704C40.0653 9.70011 40.4167 9.59326 40.7642 9.48047C41.2934 9.50026 41.7357 9.71397 42.1365 10.0543C42.328 10.2186 42.4031 10.3749 42.2728 10.6005C41.9924 10.7014 41.7041 10.7746 41.404 10.7845Z" fill="#6460A9"/>
<path d="M50.3438 7.52734C50.713 7.559 50.786 7.81427 50.7643 8.11505C50.6577 9.49228 51.021 10.8656 50.7406 12.2745C51.0309 12.128 50.8571 11.7461 51.1553 11.663C51.0763 12.2171 50.8354 12.7197 50.6537 13.2421C50.3674 13.1511 50.557 12.9492 50.5491 12.7929C50.8038 11.3998 50.6301 9.99886 50.6202 8.59985C50.6162 8.21201 50.7209 7.81229 50.3438 7.52734Z" fill="#B9B7B7"/>
<path d="M49.7637 13.5221C49.8111 13.2293 49.6847 13.0848 49.3984 12.9997C48.9087 12.8513 48.3973 12.7583 48.0103 12.3507C47.8366 12.1687 47.7655 11.9391 47.5977 11.767C47.5977 11.7333 47.5996 11.6977 47.5996 11.6641C47.8267 11.668 47.9294 11.856 48.0676 11.9866C48.4625 12.3606 48.9008 12.6535 49.4458 12.7623C49.7084 12.8157 49.8979 12.9523 49.8742 13.2609C49.8683 13.3619 49.8762 13.4687 49.7637 13.5221Z" fill="#7270B3"/>
<path d="M25.433 42.571C25.0736 42.5215 24.7577 42.4879 24.4437 42.4345C24.2265 42.3989 24.2897 42.2683 24.3825 42.1574C24.5583 41.9437 24.7498 41.7459 25.0558 41.6133C25.0815 41.9596 25.3125 42.2168 25.433 42.571Z" fill="#ABB4BB"/>
<path d="M20.8758 42.5749C20.5934 42.4067 20.623 42.185 20.7672 41.9456C21.0298 41.8407 21.245 41.9654 21.4622 42.0861C21.5984 42.1455 21.7367 42.2048 21.8729 42.2642C21.9025 42.3849 21.8334 42.4878 21.7386 42.4819C21.4444 42.4641 21.1759 42.66 20.8758 42.5749Z" fill="#D8E5EF"/>
<path d="M50.5495 12.7891C50.5751 12.9414 50.5119 13.1136 50.6541 13.2382C50.5929 13.4717 50.5356 13.7052 50.4705 13.9368C50.4132 14.1406 50.2632 14.2633 50.0736 14.1663C49.8623 14.0575 50.0697 13.9269 50.119 13.8101C50.2592 13.4698 50.4053 13.1294 50.5495 12.7891Z" fill="#B5B3B2"/>
<path d="M40.7891 16.217C40.8838 16.2052 40.9786 16.1953 41.0931 16.1814C41.028 16.0844 40.9668 15.9914 40.9036 15.8984C41.3143 16.037 41.6875 16.2427 42.0093 16.5435C41.5631 16.5732 41.1583 16.4644 40.7891 16.217Z" fill="#CDCCCB"/>
<path d="M38.7266 14.6289C39.157 14.9792 39.6013 15.3155 40.0159 15.6836C40.2548 15.8973 40.6398 15.8894 40.7899 16.2199C39.9251 15.9211 39.238 15.3888 38.7266 14.6289Z" fill="#CDCCCB"/>
<path d="M47.4758 9.41752C47.3238 9.36211 47.2546 9.26119 47.3573 9.11872C47.458 8.97823 47.614 8.90105 47.7838 8.92678C47.9832 8.95646 47.9911 9.10091 47.926 9.26119C47.7779 9.31462 47.6278 9.36607 47.4758 9.41752Z" fill="#8E81B8"/>
<path d="M40.9065 15.9022C40.3536 15.641 39.8797 15.2927 39.625 14.7109C40.0515 15.1067 40.478 15.5044 40.9065 15.9022Z" fill="#CDCCCB"/>
<path d="M26.2118 59.7296C25.6787 60.0917 25.2878 59.8206 25.2266 59.0469C25.27 59.1142 25.3332 59.1735 25.351 59.2467C25.4714 59.7118 25.8031 59.785 26.2118 59.7296Z" fill="#A7AFB7"/>
<path d="M20.875 42.5763C21.1968 42.4417 21.5977 42.5565 21.8721 42.2656C22.1426 42.2755 22.1308 42.4615 21.9393 42.4912C21.5917 42.5427 21.2462 42.788 20.875 42.5763Z" fill="#7E858D"/>
<path d="M46.2266 14.6348C46.2917 14.5675 46.3569 14.5002 46.4201 14.4329C46.5879 14.2568 46.7755 14.1777 47.0065 14.3182C47.1092 14.3241 47.2138 14.332 47.3165 14.338C46.9729 14.5081 46.5918 14.5457 46.2266 14.6348Z" fill="#C2B7DA"/>
<path d="M24.9201 58.362C24.6733 58.1503 24.5391 57.8871 24.5391 57.5586C24.7108 57.8059 24.8629 58.0612 24.9201 58.362Z" fill="#9199A0"/>
<path d="M21.4606 42.0838C21.2296 42.0363 20.9986 41.9908 20.7656 41.9433C21.0638 41.6643 21.2514 41.9255 21.4606 42.0838Z" fill="#7E858D"/>
<path d="M14.8765 31.4373C13.9149 31.4155 12.9553 31.461 12.0115 31.1523C10.3963 30.622 10.3489 29.3655 10.8268 28.0001C11.0558 27.3451 11.583 26.9909 12.1951 26.7495C13.5101 26.2311 14.8508 25.7958 16.2507 25.586C17.5085 25.398 18.7465 25.5088 19.9193 26.0114C20.9757 26.4646 21.3331 27.3471 20.9559 28.4355C20.4584 29.8701 19.3349 30.6003 17.9863 31.087C16.9773 31.4511 15.9308 31.465 14.8765 31.4373Z" fill="#050303"/>
<path d="M20.4367 36.8021C18.1719 37.1524 15.9546 36.7764 13.7352 36.4044C12.667 36.2263 11.5969 36.0799 10.5918 35.6445C9.90866 35.3477 9.36172 34.8966 9.01026 34.2317C8.82663 33.8834 8.52651 33.6123 8.38632 33.2344C8.17307 32.6585 8.10989 32.0768 8.56008 31.6157C9.08134 31.0814 9.69541 30.6085 10.5148 30.8499C11.5653 31.1566 12.592 31.5445 13.6385 31.8591C15.2911 32.3558 16.9695 32.7298 18.7011 32.8188C20.259 32.898 21.8149 32.987 23.3747 33.0108C25.3374 33.0405 27.2645 32.6981 29.2094 32.5398C31.253 32.3716 33.2847 32.0649 35.3323 31.9402C35.9562 31.9026 36.3353 32.2074 36.6848 33.0147C36.902 33.5213 36.7954 34.0477 36.3649 34.4513C35.5732 35.1914 34.6175 35.5852 33.5651 35.787C32.258 36.0363 30.939 36.1986 29.6102 36.2619C27.6732 36.3529 25.7579 36.6537 23.8269 36.7883C22.7034 36.8674 21.5681 36.8021 20.4367 36.8021Z" fill="#0F0A0A"/>
<path d="M28.0717 25.1001C29.2524 25.0942 30.443 25.0487 31.6001 25.3237C32.5972 25.5612 33.3752 26.143 33.9043 27.0334C34.2676 27.6469 34.159 28.2207 33.778 28.7847C33.231 29.596 32.3919 29.8473 31.5033 29.9937C30.2732 30.1955 29.0451 30.4152 27.7913 30.435C27.0074 30.4468 26.2611 30.2925 25.5246 30.0451C24.9796 29.8631 24.5906 29.5109 24.3715 28.9786C24.0358 28.1673 23.8739 27.3342 24.2214 26.4893C24.5709 25.6384 25.2422 25.1714 26.1525 25.1061C26.7882 25.0645 27.4319 25.1001 28.0717 25.1001Z" fill="#050102"/>
<path d="M36.1506 45.3255C35.9808 45.3077 35.8485 45.2997 35.7202 45.278C35.3806 45.2186 35.2048 45.1058 35.3371 44.6843C35.6432 43.7147 36.04 42.8381 37.049 42.4166C37.4222 42.2603 37.6947 42.009 37.9415 41.6845C38.2989 41.2155 38.5832 41.2769 38.8537 41.7993C39.1953 42.4582 39.3829 43.1765 39.6534 43.8631C39.7936 44.2193 39.685 44.4212 39.3533 44.5636C38.3186 45.0089 37.2208 45.187 36.1506 45.3255Z" fill="#121415"/>
<path d="M23.8533 50.6565C24.2304 49.9996 24.728 49.7601 25.3045 49.958C25.812 50.1321 26.124 50.704 26.0233 51.266C25.964 51.5964 25.7646 51.824 25.5138 52.0219C25.0084 52.3128 24.5424 52.2237 24.1179 51.8577C23.7881 51.5727 23.6934 51.1097 23.8533 50.6565Z" fill="#131516"/>
<path d="M23.8543 50.6562C23.8306 51.5249 24.0497 51.9009 24.652 52.1008C24.962 52.2037 25.2285 52.0394 25.5148 52.0236C25.1258 52.3323 24.6697 52.3382 24.2294 52.0394C23.8444 51.7782 23.5759 51.1787 23.6845 50.8165C23.7101 50.7314 23.7694 50.68 23.8543 50.6562Z" fill="#ACB5BD"/>
<path d="M37.6361 8.17601C37.4288 8.19382 37.1899 8.18393 37.18 7.93262C37.1701 7.69517 37.411 7.70902 37.5927 7.69715C40.3688 7.51708 43.0778 6.97291 45.7453 6.20909C46.8787 5.88457 48.0081 5.5462 49.1375 5.20585C49.3034 5.15638 49.487 5.0792 49.564 5.2751C49.6529 5.50662 49.4436 5.5739 49.2698 5.63327C47.7633 6.13786 46.2409 6.58309 44.7028 6.98082C42.444 7.56457 40.1595 7.98011 37.8316 8.15029C37.7664 8.1582 37.7012 8.1681 37.6361 8.17601Z" fill="#161717"/>
<path d="M49.0862 10.1715C49.0605 10.3714 48.9677 10.4743 48.794 10.4743C48.6104 10.4723 48.5274 10.3417 48.5314 10.1834C48.5353 10.0152 48.6578 9.91628 48.8236 9.91034C49.0112 9.9044 49.0645 10.0429 49.0862 10.1715Z" fill="#9791C5"/>
<path d="M48.1027 11.359C48.077 11.5153 47.9842 11.5945 47.8322 11.545C47.6387 11.4817 47.7177 11.3075 47.7039 11.173C47.8658 11.175 48.0553 11.1156 48.1027 11.359Z" fill="#7270B3"/>
<path d="M42.377 11.2656C42.6771 11.4417 42.5784 11.7247 42.5468 11.9721C42.5073 12.2807 42.2407 12.6369 42.5902 12.8724C43.0048 13.1514 43.4945 13.2365 43.9941 13.0683C44.3179 12.9595 44.5311 12.7042 44.7661 12.4766C45.2242 12.0314 45.6882 11.6179 46.3714 11.513C46.7505 11.4556 47.0703 11.5347 47.404 11.6574C46.8077 11.6812 46.1937 11.5565 45.6507 11.9404C45.2854 12.1976 44.9892 12.5261 44.697 12.8506C44.3238 13.2662 43.8973 13.4245 43.3484 13.3493C43.1233 13.3176 42.9002 13.2781 42.6751 13.2484C41.8517 13.1336 41.8241 13.1158 42.2052 12.4094C42.4105 12.0354 42.3612 11.6515 42.377 11.2656Z" fill="#7270B3"/>
<path d="M41.737 12.0141C41.3777 11.931 41.044 12.0972 40.6905 12.0596C40.4812 12.0378 40.268 11.9963 40.2581 11.7648C40.2482 11.5392 40.4812 11.5886 40.6313 11.557C40.7419 11.5332 40.8485 11.4937 40.9591 11.4679C41.5613 11.3215 41.5613 11.3235 41.737 12.0141Z" fill="#E9DDEB"/>
<path d="M47.0039 14.3161C46.8084 14.3537 46.6129 14.3932 46.4174 14.4308C45.8231 14.4269 45.985 13.9045 45.9574 13.6255C45.9159 13.2119 46.1805 12.8795 46.6327 12.7944C47.071 12.7133 47.3139 13.0219 47.4698 13.3366C47.7463 13.8946 47.6199 14.1123 47.0039 14.3161Z" fill="#F3F2F9"/>
<path d="M14.3939 26.5117C12.917 28.4292 13.9319 30.5267 15.6931 30.871C15.6398 31.0234 15.5075 30.9719 15.4049 30.9739C14.3584 30.9897 13.3099 31.0333 12.2812 30.7542C11.3216 30.493 10.9938 30.0933 11.0392 29.1138C11.0807 28.2115 11.4203 27.5051 12.3464 27.1825C12.992 26.9609 13.6081 26.6522 14.3939 26.5117Z" fill="#FDFEFE"/>
<path d="M19.1173 26.1807C19.6248 26.3964 20.1895 26.5131 20.4955 27.0573C20.6041 27.2512 20.6713 27.4432 20.6693 27.6608C20.6693 28.8738 19.1173 30.4885 17.8398 30.5697C18.14 30.0275 18.6 29.6119 18.8271 29.0499C18.8923 28.5988 18.9298 28.1476 18.9179 27.6925C18.9061 27.2156 18.7461 26.804 18.3848 26.4755C18.2802 26.3806 18.1538 26.2915 18.1182 26.0976C18.4677 25.9254 18.7896 26.0956 19.1173 26.1807Z" fill="#FAFAFA"/>
<path d="M15.5465 26.832C15.8209 26.832 16.0184 26.9884 16.0401 27.3228C16.0618 27.6631 15.8723 27.7937 15.5544 27.7601C15.2858 27.7324 15.0844 27.7878 14.9837 28.0787C14.9442 28.1934 14.8218 28.3023 14.6718 28.2469C14.4941 28.1816 14.5138 28.0292 14.5414 27.8768C14.6323 27.3426 15.0884 26.8419 15.5465 26.832Z" fill="#DDDBDB"/>
<path d="M17.7459 27.558C17.7301 27.7321 17.6551 27.9122 17.4201 27.9399C17.1832 27.9676 16.7211 27.4491 16.6974 27.1464C16.6777 26.907 16.7962 26.7724 17.0331 26.7546C17.351 26.7348 17.7321 27.1464 17.7459 27.558Z" fill="#DBD9D8"/>
<path d="M16.2403 29.6565C15.9638 29.6189 15.7328 29.5576 15.5551 29.3676C15.4268 29.2311 15.3162 29.0589 15.4307 28.8907C15.5354 28.7364 15.6914 28.861 15.8236 28.9204C15.9895 28.9976 16.1652 29.0391 16.3449 28.9896C16.5127 28.9441 16.7003 28.8116 16.7892 29.0747C16.8682 29.3063 16.7043 29.4388 16.5305 29.5417C16.4338 29.5971 16.3212 29.6248 16.2403 29.6565Z" fill="#F3F3F3"/>
<path d="M19.1162 26.181C18.8062 26.2324 18.5239 25.9831 18.131 26.1315C19.1182 26.9349 19.1281 27.9599 18.826 29.0502C18.826 28.6901 18.8023 28.3279 18.8299 27.9698C18.8793 27.3366 18.7095 26.8082 18.208 26.3927C18.1112 26.3116 17.9177 26.2284 18.0224 26.0444C18.0994 25.9079 18.2613 25.9633 18.3857 25.9692C18.6424 25.9831 18.9129 25.9672 19.1162 26.181Z" fill="#615F5F"/>
<path d="M19.2286 36.4472C17.7043 36.558 16.0911 36.3186 14.472 36.0178C13.4453 35.8259 12.4028 35.719 11.3859 35.4519C9.98598 35.0838 9.28109 34.041 8.76574 32.8082C8.60778 32.4283 8.74402 32.08 9.03822 31.8307C9.49828 31.4389 9.99388 31.146 10.6514 31.3716C11.842 31.7792 13.0208 32.2146 14.241 32.5411C15.556 32.8933 16.8809 33.1743 18.2354 33.2752C20.1487 33.4177 22.0659 33.5067 23.9871 33.4968C25.697 33.4869 27.3734 33.1426 29.0734 33.0437C30.9551 32.9329 32.8072 32.549 34.6948 32.4916C34.8567 32.4876 35.0206 32.454 35.1805 32.4223C35.4826 32.361 35.7097 32.4402 35.917 32.6875C36.5528 33.4474 36.3988 34.0212 35.459 34.5693C34.1894 35.3114 32.7835 35.531 31.3639 35.6339C28.9135 35.812 26.473 36.0791 24.0286 36.2948C22.4786 36.4274 20.9148 36.5105 19.2286 36.4472Z" fill="#9F5024"/>
<path d="M29.359 29.78C27.9749 30.1441 26.6539 30.0748 25.3903 29.4911C24.7722 29.2061 24.3694 28.0644 24.5017 27.1759C24.6459 26.2083 25.3133 25.579 26.2946 25.5414C27.0271 25.5137 27.7636 25.5355 28.6403 25.5355C27.9551 26.2617 27.8169 27.0651 27.9433 27.9041C28.0736 28.7569 28.3303 29.5544 29.359 29.78Z" fill="#FEFEFE"/>
<path d="M32.8141 28.442C33.0826 27.6703 32.666 27.0113 32.4844 26.2891C33.0274 26.5641 33.4874 26.9381 33.6375 27.5476C33.7777 28.1155 33.5309 28.5706 33.0313 28.8793C32.978 28.9129 32.9425 28.9743 32.899 29.0218C32.7332 29.1207 32.6502 29.0356 32.6956 28.8852C32.7371 28.7388 32.7411 28.5785 32.8141 28.442Z" fill="#F0F0F0"/>
<path d="M29.7088 25.8989C30.0247 25.9167 30.315 26.2472 30.2913 26.5658C30.2794 26.7339 29.5963 27.2425 29.3949 27.199C29.1165 27.1396 29.075 26.9041 29.0829 26.6607C29.0967 26.2768 29.4225 25.8831 29.7088 25.8989Z" fill="#E3E1E0"/>
<path d="M31.7084 26.6039C31.6887 26.7899 31.5781 26.8632 31.4142 26.875C31.1319 26.8948 30.8416 26.5584 30.8179 26.2141C30.8061 26.0598 30.8633 25.9727 30.9996 26.0143C31.3155 26.1092 31.5979 26.2636 31.7084 26.6039Z" fill="#E7E6E6"/>
<path d="M30.2526 27.5708C30.4145 27.7905 30.8765 27.5412 30.9338 27.933C30.9614 28.115 30.7344 28.2911 30.529 28.2713C30.2644 28.2456 30.0334 28.1031 29.988 27.8004C29.9643 27.6441 30.0571 27.5629 30.2526 27.5708Z" fill="#D8D7D6"/>
<path d="M32.8145 28.4453C32.9665 28.6214 32.5479 28.8787 32.8974 29.0251C32.8579 29.2566 32.6723 29.2586 32.4531 29.31C32.4887 28.9578 32.6782 28.7105 32.8145 28.4453Z" fill="#8A8887"/>
<path d="M36.0649 44.8682C35.8062 44.9196 35.7885 44.7158 35.9208 44.3774C36.1992 43.667 36.596 43.0694 37.3464 42.7904C37.6721 42.6697 37.9604 42.5094 38.146 42.1928C38.2783 41.9672 38.4165 41.9059 38.535 42.2205C38.7364 42.7548 38.9536 43.2851 39.1649 43.8174C39.2478 44.0252 39.1866 44.1439 38.9635 44.2191C38.0789 44.5219 37.1785 44.7474 36.0649 44.8682Z" fill="#DEEBF6"/>
<path d="M24.9192 51.6928C24.5895 51.6908 24.2656 51.3643 24.2656 51.0319C24.2637 50.6717 24.5519 50.3868 24.9212 50.3828C25.2786 50.3808 25.5964 50.6697 25.6083 51.0081C25.6201 51.3564 25.2766 51.6967 24.9192 51.6928Z" fill="#D3DEE8"/>
<path d="M23.2082 34.8813C20.8309 34.818 18.3015 34.6181 15.7702 34.4123C14.4276 34.3035 13.1047 34.1392 11.8153 33.7296C11.2111 33.5377 10.6918 33.2112 10.1824 32.853C10.0501 32.76 9.8961 32.6552 10.0462 32.4573C10.1745 32.2851 10.3285 32.3089 10.4766 32.4177C12.0759 33.5951 13.9596 33.692 15.8354 33.8879C17.9224 34.1056 20.0174 34.163 22.1044 34.3371C22.9692 34.4084 23.838 34.3906 24.7088 34.3094C25.5242 34.2323 26.3456 34.2105 27.1631 34.1887C29.1613 34.1373 31.1575 34.0581 33.1399 33.7771C33.8586 33.6742 34.5339 33.4111 35.1854 33.1024C35.3947 33.0034 35.5764 32.952 35.6889 33.1736C35.8193 33.4289 35.5922 33.5041 35.4086 33.5852C34.2298 34.1016 33.0115 34.4222 31.7143 34.4796C29.6035 34.5746 27.4968 34.7487 25.3821 34.8002C24.7147 34.816 24.0414 34.8437 23.2082 34.8813Z" fill="#170B05"/>
</g>
</g>
<defs>
<clipPath id="clip0_20238_510200">
<rect width="60" height="60" fill="white"/>
</clipPath>
</defs>
</svg>
