<svg width="52" height="52" viewBox="0 0 52 52" fill="none" xmlns="http://www.w3.org/2000/svg">
<circle cx="26" cy="26" r="26" fill="#EABA9F"/>
<path fill-rule="evenodd" clip-rule="evenodd" d="M10.2445 22.0527C11.671 19.7575 14.1412 18.7734 16.595 17.8044C17.7812 17.336 18.9982 16.9345 20.2136 16.5336L20.2137 16.5335C20.4832 16.4446 20.7526 16.3557 21.0216 16.2662C21.411 16.136 21.6367 15.9634 21.7807 15.5788C22.1537 14.5826 22.5397 13.5833 23.2006 12.7022C23.7863 11.9179 24.1265 11.818 25.0426 12.2662C25.8606 12.6659 26.6294 13.1413 27.3263 13.7105C27.7287 14.0375 28.0952 14.2132 28.707 14.0557C31.5698 13.3169 34.0988 13.8983 36.1698 15.9119C36.6508 16.3782 37.1677 16.5084 37.8319 16.4872C39.0882 16.4478 40.325 16.572 41.5453 16.899C42.288 17.0958 42.4156 17.4229 42.1211 18.0587C41.7514 18.8581 41.241 19.5697 40.6423 20.2147C40.2661 20.6204 40.3053 20.893 40.5507 21.3351C40.6601 21.5334 40.7707 21.7314 40.8814 21.9295L40.8817 21.9301C41.6681 23.3379 42.4575 24.7509 42.8246 26.3222C43.4397 28.9535 42.4058 30.7128 39.6902 31.6878L39.6319 31.7087C39.4223 31.7838 39.2122 31.859 38.9966 31.9089C37.8319 32.1753 36.7653 32.5992 35.7249 33.1897C33.9909 34.1738 32.1227 34.3101 30.3199 33.2745C29.921 33.0463 29.7402 33.2176 29.5492 33.3986L29.5492 33.3986C29.5146 33.4314 29.4797 33.4645 29.4431 33.4955C27.1267 35.4365 23.1581 34.843 21.339 33.2805C21.3367 33.2779 21.3344 33.2752 21.3321 33.2725C21.2323 33.2168 21.1332 33.1618 21.0342 33.1069C20.932 33.0501 20.8297 32.9933 20.7267 32.9358C20.6885 32.8756 20.6448 32.8167 20.601 32.7576C20.5059 32.6293 20.4104 32.5005 20.37 32.3574C20.3344 32.2281 20.2886 32.1267 20.2332 32.0479C20.0681 31.9016 19.8637 31.826 19.6285 31.7933C19.4973 31.7942 19.3525 31.8097 19.1955 31.8275C17.4418 32.0243 15.7896 31.6156 14.8113 30.2257C14.2028 29.3627 13.447 28.8904 12.5604 28.3816C10.8666 27.4142 9.91732 25.9758 9.89118 24.0953C9.87569 24.0498 9.85741 24.0048 9.83554 23.9603C9.83485 23.8905 9.83345 23.8205 9.83204 23.7507C9.82005 23.1543 9.80815 22.5622 10.2445 22.0527ZM25.4449 21.1564C22.4905 23.4365 20.2755 26.1768 19.3136 29.6772C19.2089 30.0617 19.0192 30.1465 18.6495 30.1617C16.6701 30.2434 15.4922 28.6113 16.2742 26.849C16.9154 25.3986 17.9918 24.2873 19.4314 23.4879C20.0334 23.1518 20.354 22.7491 20.0072 22.1344C19.6506 21.4985 19.0977 21.5742 18.4728 21.8316C16.2807 22.734 14.6743 24.1571 13.8629 26.2676C13.6044 26.9399 13.359 26.8006 12.9664 26.3888C11.4941 24.8596 11.5858 23.1639 13.2511 21.8256C14.5205 20.8051 16.0255 20.1541 17.5698 19.5879C21.3617 18.198 25.1962 16.9232 29.1321 15.924C31.3504 15.3608 33.2415 15.8089 34.8839 17.332C37.6747 19.9209 39.5069 23.0428 40.8188 26.4372C41.5059 28.2116 40.9137 29.2745 39.1535 29.977C38.5286 30.2253 38.3356 30.1647 38.4174 29.4955C38.6398 27.6484 38.558 25.8256 37.7761 24.0693C37.233 22.849 36.4805 21.7499 35.584 20.7264C35.162 20.2449 34.6614 20.0754 34.0954 20.4599C33.5457 20.8324 33.6243 21.3532 33.9482 21.8013C34.8184 23.0035 35.535 24.2601 35.8654 25.6893C36.2776 27.4819 36.1729 29.2472 35.4957 30.9701C35.126 31.9119 32.6624 32.5326 31.8215 31.9331C31.6149 31.7859 31.6677 31.656 31.7339 31.4932L31.7397 31.4789C32.9077 28.5901 32.5904 25.6832 31.851 22.7733C31.7168 22.2404 31.5042 21.7287 30.7975 21.6832C30.3067 21.653 29.9893 21.9315 29.7963 22.3343C29.698 22.5442 29.7356 22.7559 29.773 22.9666C29.7842 23.0295 29.7953 23.0922 29.8028 23.1549C30.0515 25.2654 30.2085 27.3789 29.708 29.4773C29.3742 30.8733 28.769 32.1147 27.1953 32.6961C25.7492 33.229 23.4262 32.8112 22.3891 31.7907C21.7511 31.1639 21.8623 30.3948 22.0488 29.6439C22.3858 28.2752 23.1023 27.064 23.9006 25.8891C24.6269 24.8203 25.4809 23.8422 26.3544 22.8732C27.0382 22.1162 27.0055 21.8346 26.2595 21.1503C25.9814 21.0171 25.7132 20.9172 25.4449 21.1564Z" fill="white"/>
<path fill-rule="evenodd" clip-rule="evenodd" d="M19.6559 33.7199C18.02 33.6048 16.5019 33.2354 15.4451 31.9394C15.4258 31.8845 15.3999 31.8322 15.3739 31.7797L15.3739 31.7797C15.3425 31.7164 15.311 31.653 15.2913 31.5851C15.1179 30.8614 14.7253 30.4072 13.8321 30.5011C13.6263 30.5243 13.4322 30.4248 13.2459 30.3294L13.2459 30.3294C13.2132 30.3126 13.1806 30.2959 13.1483 30.28C11.8855 29.6623 11.1297 28.7176 10.9105 27.4004C10.7829 26.6434 10.459 26.4012 9.7948 26.5223C9.22879 26.6252 9.13064 27.0673 9.08156 27.4882C8.94088 28.6631 8.93434 29.8198 9.32367 30.9765C9.85042 32.5359 10.7305 33.7865 12.4122 34.4405C13.0829 34.5677 13.5311 34.922 13.9401 35.4458C15.1343 36.978 16.8225 37.5927 18.8379 37.517C18.8852 37.5152 18.9324 37.5123 18.9796 37.5094H18.9796H18.9796H18.9797H18.9797C19.3211 37.4888 19.6552 37.4685 19.911 37.841C21.3146 39.8728 24.0858 40.6994 26.8897 39.3308C27.3314 39.1158 27.7436 39.028 28.2147 39.1642C29.6903 39.4913 31.1626 39.5155 32.6316 39.1461C33.6818 38.8311 34.6437 38.3739 35.4584 37.6805C35.7365 37.4413 36.0473 37.3747 36.4072 37.3202C39.1653 36.8962 41.1676 35.5881 42.1393 33.0779C42.3094 32.6358 42.28 32.2604 41.8579 32.0121C41.3803 31.7305 41.0694 32.0363 40.7652 32.3633C39.7215 33.4897 38.3833 34.0015 36.7867 33.9046C36.2927 33.8743 35.851 33.9954 35.4878 34.2558C33.708 35.5336 31.7809 35.5185 29.7721 34.8766C29.4024 34.7585 29.0948 34.71 28.6891 34.8675L28.5768 34.911C27.2923 35.4089 26.003 35.9086 24.5438 35.788C22.9276 35.6578 21.4095 35.3732 20.4476 33.9894C20.2768 33.7484 20.0414 33.738 19.7864 33.7267C19.7434 33.7249 19.6998 33.7229 19.6559 33.7199ZM20.8405 36.7691C21.3149 37.8168 22.7938 38.6798 24.3184 38.6737C25.1887 38.5889 26.1866 38.3134 26.9783 37.6018C27.1648 37.4292 27.3939 37.2021 27.2499 36.9417C27.1344 36.7326 26.9303 36.8034 26.7514 36.8654C26.6972 36.8842 26.6453 36.9022 26.5988 36.9114C24.7568 37.2808 22.9934 37.0507 21.2724 36.3845C21.2271 36.3671 21.1829 36.3347 21.1384 36.3022C21.0288 36.222 20.9176 36.1407 20.7849 36.2786C20.6642 36.4033 20.7386 36.557 20.8077 36.6996C20.8191 36.7231 20.8303 36.7463 20.8405 36.7691ZM14.5556 33.0174C15.7171 33.9773 16.9309 34.5405 18.292 34.8675C18.836 34.9977 18.7944 35.5151 18.7639 35.8937L18.7598 35.9455C18.7337 36.2713 18.4437 36.2124 18.1995 36.1628C18.1373 36.1501 18.0781 36.1381 18.0269 36.1332C16.0017 35.9485 14.6309 34.7645 14.5556 33.0174ZM11.4206 31.0171C11.343 30.9609 11.2654 30.9046 11.186 30.8523C10.9165 30.8408 10.9638 30.9841 11.0113 31.1279L11.0192 31.1521C11.3365 31.8818 11.8208 32.4723 12.6158 32.8901C12.8186 32.1664 12.7074 31.6608 11.9778 31.358C11.7772 31.2757 11.5988 31.1464 11.4206 31.0171ZM33.7972 36.448C33.9277 36.4533 34.0468 36.4063 34.1662 36.3592C34.3193 36.2988 34.4728 36.2382 34.6511 36.2875C34.216 36.993 33.6238 37.3746 32.3184 37.8015L32.3077 37.8055L32.314 37.8047C31.2213 38.3891 30.014 38.2468 28.9212 38.0015C28.5667 37.9205 28.6738 37.6288 28.8891 37.3645C28.9492 37.2275 29.0174 37.0928 29.1213 36.981C29.1494 36.9405 29.1768 36.898 29.2046 36.8551C29.4032 36.5478 29.6173 36.2166 30.1885 36.4238L30.2115 36.4301C31.4033 36.5723 32.5984 36.5773 33.7966 36.448L33.7957 36.4484L33.7972 36.448ZM38.4854 35.3399L38.4854 35.3398C38.4086 35.3686 38.3326 35.3965 38.2566 35.4245L38.2566 35.4245L38.2566 35.4245C38.1805 35.4525 38.1045 35.4805 38.0276 35.5093L38.0276 35.5093C37.93 35.5359 37.8367 35.5741 37.7475 35.6106C37.4714 35.7236 37.2345 35.8206 37.0297 35.5093L37.0297 35.5093C37.2298 34.975 37.6867 35.0213 38.0805 35.0613C38.2468 35.0781 38.4018 35.0939 38.5215 35.0642C38.541 35.0527 38.5613 35.038 38.5818 35.0231C38.6532 34.9713 38.7261 34.9184 38.7668 35.0007C38.8747 35.2218 38.6094 35.3156 38.4854 35.3399Z" fill="white"/>
</svg>
