<svg width="52" height="53" viewBox="0 0 52 53" fill="none" xmlns="http://www.w3.org/2000/svg">
<g clip-path="url(#clip0_9235_291752)">
<circle cx="26" cy="26.0928" r="26" fill="#E96E5E"/>
<path d="M15.2311 17.3436C16.2573 18.4432 17.2144 19.4735 18.2691 20.6015C19.6171 19.3676 20.8877 18.1825 22.1827 17.026C24.1863 15.2341 25.632 15.2382 27.6927 17.0056C30.3601 19.2943 33.842 19.7219 36.8149 18.0685C37.5153 17.6776 38.1343 17.14 38.7941 16.6798C40.4353 15.5355 40.9769 15.6413 41.9583 17.2988C44.9964 22.4056 44.9231 30.298 41.881 34.8387C40.5371 34.2767 39.2624 33.5518 37.8941 33.2097C35.1859 32.5256 32.7791 33.3889 30.6411 35.0993C28.8004 36.5736 27.3221 36.5613 25.5017 34.965C23.209 32.9573 20.6189 32.3586 17.6949 33.1935C16.0537 33.6618 14.8157 34.7613 13.6143 35.8975C13.0116 36.4677 12.4089 37.046 11.7573 37.669C9.90845 35.5107 8.75188 33.1568 8.08808 30.5464C8.07993 30.5138 8.07993 30.4772 8.06771 30.4486C7.74192 29.3287 7.45685 28.2903 8.84962 27.5532C10.1161 26.8812 11.3134 26.698 12.584 27.3821C12.9383 27.5694 13.2682 27.8219 13.5614 28.0989C16.6198 31.0188 21.2501 31.2957 24.9275 28.1477C25.5139 27.6468 26.1329 27.1744 26.7642 26.7265C28.2873 25.6391 30.0913 25.6961 31.5248 26.9016C33.1212 28.2455 34.6932 29.626 36.3262 31.0351C37.3158 29.9029 38.2647 28.8197 39.3439 27.5898C37.2018 25.8672 35.2837 23.9613 33.0316 22.593C29.8999 20.6911 26.6949 21.2206 23.7628 23.3504C23.0827 23.8432 22.4393 24.3889 21.7755 24.9061C19.9917 26.2907 18.4239 26.3029 16.6605 24.8287C15.2596 23.6559 13.7528 22.6785 11.9121 22.5563C10.5967 22.4667 9.25686 22.6826 7.94554 22.7599C8.36907 18.1092 12.2786 12.1106 18.4605 9.43499C25.4895 6.3929 32.995 8.14811 37.4868 12.1065C36.5665 12.7784 35.6868 13.487 34.738 14.0938C33.4755 14.9042 31.9687 14.7699 30.7144 13.6866C29.1954 12.3712 27.5583 11.3979 25.5017 11.2798C23.2823 11.1576 21.3031 11.7685 19.6415 13.2712C18.1958 14.5825 16.7705 15.9223 15.2311 17.3436Z" fill="white"/>
<path d="M38.9745 38.7763C32.927 45.1496 22.3998 46.2451 15.0043 40.7066C16.2219 39.6763 17.3337 38.5523 18.6246 37.6971C19.7527 36.9518 21.0396 37.1554 22.1066 38.0188C23.6093 39.2364 25.1201 40.3645 27.1482 40.5926C29.3066 40.8328 31.1962 40.283 32.9514 39.0491C33.7129 38.5156 34.503 37.9496 35.3663 37.6441C36.6899 37.1717 38.0867 37.6971 38.9745 38.7763Z" fill="white"/>
</g>
<defs>
<clipPath id="clip0_9235_291752">
<rect width="52" height="52" fill="white" transform="translate(0 0.0927734)"/>
</clipPath>
</defs>
</svg>
