<svg width="20" height="20" viewBox="0 0 20 20" fill="none" xmlns="http://www.w3.org/2000/svg">
<g clip-path="url(#clip0_3442_40724)">
<circle cx="10" cy="10" r="10" fill="#B181FF"/>
<path d="M14.9485 12.4042L13.2977 14.0538C13.2618 14.0897 13.2184 14.1182 13.1701 14.1378C13.1219 14.1573 13.0699 14.1673 13.0173 14.1673H5.19165C5.15431 14.1673 5.11778 14.1571 5.08655 14.1381C5.05533 14.119 5.03077 14.0918 5.01588 14.0599C5.001 14.028 4.99644 13.9928 5.00278 13.9585C5.00911 13.9242 5.02605 13.8924 5.05153 13.8669L6.70357 12.2173C6.73937 12.1816 6.78264 12.1531 6.83073 12.1335C6.87883 12.114 6.93071 12.1039 6.98318 12.1038H14.8084C14.8457 12.1038 14.8822 12.114 14.9135 12.1331C14.9447 12.1521 14.9692 12.1793 14.9842 12.2112C14.999 12.2431 15.0036 12.2784 14.9972 12.3127C14.9909 12.347 14.974 12.3788 14.9485 12.4042ZM13.2977 9.08239C13.2618 9.04656 13.2184 9.01799 13.1701 8.99846C13.1219 8.97895 13.0699 8.96888 13.0173 8.96891H5.19165C5.15431 8.96891 5.11778 8.97907 5.08655 8.99815C5.05533 9.01723 5.03077 9.04439 5.01588 9.07629C5.001 9.10821 4.99644 9.14347 5.00278 9.17776C5.00911 9.21204 5.02605 9.24386 5.05153 9.26931L6.70357 10.9189C6.73937 10.9546 6.78264 10.9832 6.83073 11.0027C6.87883 11.0222 6.93071 11.0323 6.98318 11.0324H14.8084C14.8457 11.0324 14.8822 11.0222 14.9135 11.0032C14.9447 10.9841 14.9692 10.9569 14.9842 10.925C14.999 10.8931 15.0036 10.8578 14.9972 10.8235C14.9909 10.7893 14.974 10.7574 14.9485 10.732L13.2977 9.08239ZM5.19165 7.89748H13.0173C13.0699 7.8975 13.1219 7.88744 13.1701 7.86791C13.2184 7.84839 13.2618 7.81982 13.2977 7.78398L14.9485 6.13438C14.974 6.10894 14.9909 6.07713 14.9972 6.04284C15.0036 6.00855 14.999 5.97329 14.9842 5.94138C14.9692 5.90947 14.9447 5.88231 14.9135 5.86323C14.8822 5.84415 14.8457 5.83399 14.8084 5.83398H6.98318C6.93071 5.83407 6.87883 5.84418 6.83073 5.8637C6.78264 5.88323 6.73937 5.91174 6.70357 5.94748L5.05195 7.59708C5.0265 7.62249 5.00957 7.65428 5.00322 7.68852C4.99687 7.72277 5.00139 7.75801 5.01622 7.7899C5.03105 7.8218 5.05555 7.84896 5.08671 7.86807C5.11787 7.88718 5.15434 7.89739 5.19165 7.89748Z" fill="white"/>
</g>
<defs>
<clipPath id="clip0_3442_40724">
<rect width="20" height="20" fill="white"/>
</clipPath>
</defs>
</svg>
