<svg width="20" height="20" viewBox="0 0 20 20" fill="none" xmlns="http://www.w3.org/2000/svg">
<circle cx="10" cy="10" r="10" fill="#6FA3C9"/>
<path d="M14.9043 11.0252C14.7651 10.4313 14.4507 9.92087 14.1184 9.41857C12.9434 7.64059 11.7684 5.86262 10.5926 4.0839C10.3673 3.77514 10.0597 3.70053 9.69898 3.77883C9.55678 3.88003 9.44527 4.00412 9.34872 4.15186C8.87946 4.87058 8.40196 5.58414 7.92671 6.29917C7.52257 6.95732 7.10719 7.60809 6.64092 8.22562C6.57506 8.34159 6.51369 8.46126 6.44109 8.57353C6.00701 9.25089 5.50033 9.88689 5.20021 10.6433C4.8956 11.5888 4.94649 12.5225 5.299 13.4451C5.94265 14.7377 6.97472 15.5842 8.35257 16.0334C9.31878 16.2756 10.291 16.3296 11.2707 16.119C12.5041 15.8295 13.51 15.1942 14.2711 14.1896C14.9005 13.2161 15.1557 12.1701 14.9043 11.0252ZM12.1725 14.768C11.6935 15.0435 11.1696 15.1898 10.6158 15.2304C10.5851 15.24 10.5559 15.2452 10.5282 15.2474C8.63398 15.6123 6.59377 14.3588 6.16118 12.521C6.05042 12.0497 6.02722 11.5622 6.21956 11.0976C6.2263 11.0673 6.23752 11.0385 6.25773 11.0111C6.47627 10.206 7.07351 9.62466 7.51359 8.85201C7.70668 9.29521 7.87133 9.66085 8.14376 9.96592C8.67813 10.565 9.3592 10.9291 10.1076 11.1899C10.767 11.4196 11.4091 11.6759 11.9465 12.1391C12.3566 12.4922 12.5991 12.9376 12.7301 13.4488C12.8715 14.0087 12.6807 14.4762 12.1725 14.768ZM13.6866 12.9073C13.3011 11.7343 12.43 11.1522 11.4742 10.6551C10.5769 10.3412 9.63611 10.1114 8.98648 9.33584C8.90565 9.23907 8.85551 9.13492 8.79563 9.03151C8.37502 8.1909 8.55464 7.40496 9.01866 6.64487C9.23571 6.30139 9.44078 5.95052 9.67279 5.61738C9.89656 5.2968 10.1211 5.30714 10.3374 5.63806C10.8508 6.42031 11.3567 7.20699 11.8657 7.9922C12.5333 8.93327 13.2532 9.84626 13.7165 10.9085C13.9845 11.5201 13.9904 12.1664 13.6866 12.9073Z" fill="white"/>
</svg>
