<svg width="364" height="364" viewBox="0 0 364 364" fill="none" xmlns="http://www.w3.org/2000/svg">
<circle cx="182" cy="182" r="182" fill="url(#paint0_linear_7299_248400)"/>
<path fill-rule="evenodd" clip-rule="evenodd" d="M350 182C350 274.784 274.784 350 182 350C154.146 350 127.874 343.221 104.746 331.223C104.744 331.227 104.742 331.231 104.74 331.236C103.012 330.338 101.301 329.406 99.6063 328.442C48.5065 299.63 14 244.844 14 182C14 89.2162 89.2162 14 182 14C274.784 14 350 89.2162 350 182ZM286.488 295.13C285.245 290.778 283.595 286.548 281.42 282.476C278.38 276.776 274.44 271.816 269.23 267.936C264.01 264.046 258.14 261.756 251.73 260.796C248.51 260.316 245.29 260.076 242.04 260.406C237.39 260.876 233.17 262.346 229.82 265.766C227.24 268.406 225.76 271.626 224.94 275.186C224.06 279.056 223.96 282.966 224.46 286.896C224.75 289.226 225.2 291.516 225.97 293.736C226.25 294.546 226.56 295.356 227.1 296.046C227.56 296.636 227.89 296.586 228.25 295.916C228.5 295.456 228.62 294.956 228.68 294.436C228.82 293.266 228.81 292.096 228.75 290.926C228.61 288.056 228.66 285.206 229.28 282.386C230.02 279.006 231.59 276.056 233.92 273.516C235.83 271.436 238.11 270.996 240.67 272.206C242.48 273.066 243.93 274.386 245.24 275.866C248.08 279.076 250.16 282.756 251.82 286.676C253.03 289.536 253.93 292.486 254.39 295.576C254.94 299.296 253.86 302.446 251.39 305.186C248.84 308.016 245.67 309.906 242.1 311.156C237.03 312.946 231.89 313.296 226.68 311.746C223.11 310.686 220.15 308.706 217.71 305.906C215.7 303.616 214.06 301.076 212.55 298.436C210.622 295.06 208.899 291.581 207.176 288.103C206.745 287.233 206.314 286.364 205.88 285.496C203.04 279.826 200.1 274.216 196.52 268.966C193.85 265.056 190.86 261.416 187.46 258.106C183 253.766 179.53 248.676 176.44 243.306C176.42 243.285 176.409 243.247 176.392 243.188C176.383 243.159 176.373 243.125 176.36 243.086C178.15 242.426 180 242.146 181.9 242.116C185.85 242.046 189.42 243.276 192.75 245.306C195.75 247.136 198.32 249.466 200.66 252.066C200.89 252.319 201.108 252.581 201.326 252.843C201.659 253.244 201.992 253.643 202.36 254.006C203.93 255.526 203.93 257.286 203.2 259.146C202.84 260.056 202.53 260.956 202.6 261.946C202.67 262.906 203.1 263.646 203.94 264.136C205.05 264.776 205.76 264.506 206.14 263.286C206.31 262.756 206.35 262.206 206.35 261.656C206.357 261.068 206.355 260.48 206.352 259.87C206.351 259.555 206.35 259.235 206.35 258.906C208.56 258.966 210.35 257.826 212.1 256.586C214.211 255.086 216.164 253.39 218.115 251.695C218.844 251.062 219.573 250.428 220.31 249.806C221.907 248.452 223.548 247.151 225.19 245.851C225.44 245.652 225.69 245.454 225.94 245.256C228.66 243.086 231.69 242.616 235 243.346C236.62 243.696 238.17 244.266 239.66 244.996C243.32 246.776 246.56 249.136 249.44 252.016C250.3 252.876 251.05 253.766 251.28 255.046C251.47 256.116 252.24 256.756 253.32 256.996C254.04 257.156 254.76 257.136 255.48 257.086C256.09 257.036 256.46 256.666 256.64 256.066C256.895 255.213 256.699 254.39 256.502 253.567L256.49 253.516C256.13 251.966 255.52 250.496 254.82 249.076C254.61 248.656 254.64 248.356 254.9 247.966C258.14 243.076 260.23 237.726 261.26 231.956C262.05 227.516 262.16 223.056 261.87 218.566C261.644 215.12 261.069 211.724 260.495 208.328C260.334 207.378 260.173 206.427 260.02 205.476C259.69 203.426 259.99 201.496 261 199.686C261.64 198.536 262.43 197.496 263.3 196.516C266 193.466 268.86 190.576 271.72 187.686L271.72 187.686C273.84 185.536 276.58 184.606 279.53 184.296C284.58 183.746 289.39 184.826 294.11 186.516C294.516 186.662 294.661 186.936 294.822 187.24C294.847 187.288 294.873 187.337 294.9 187.386C295.52 188.526 296.37 188.806 297.48 188.276C298.91 187.586 299.19 186.416 298.19 185.176C297.95 184.886 297.67 184.626 297.39 184.376C290.49 178.076 282.57 173.426 273.89 170.036C267.32 167.476 260.54 165.736 253.59 164.606C245.98 163.366 238.32 162.866 230.62 163.016C226.9 163.086 223.18 163.296 219.48 163.766C219.265 163.796 219.049 163.804 218.78 163.815C218.599 163.822 218.395 163.83 218.15 163.846C218.38 163.655 218.564 163.501 218.725 163.365C218.894 163.224 219.037 163.103 219.18 162.986C224.96 158.146 230.34 152.916 234.81 146.806C238.09 142.326 240.75 137.526 242.3 132.166C244.67 123.966 243.88 116.016 240.35 108.296C238.01 103.176 234.77 98.6456 231.13 94.3856C228.946 91.8236 226.614 89.4098 224.282 86.9959C223.838 86.5361 223.393 86.0764 222.95 85.6156C218.84 81.3556 216.05 76.3556 214.71 70.5856C213.73 66.3456 213.57 62.0656 214.13 57.7456C214.51 54.7956 215.17 51.9256 216.19 49.1256L216.19 49.1255C216.34 48.7055 216.49 48.2856 216.51 47.8256C216.55 46.9656 216.21 46.6756 215.37 46.9556C214.72 47.1756 214.08 47.4956 213.61 47.9956C208.62 53.3056 204.28 59.0656 201.83 66.0356C199.45 72.8156 199.7 79.5656 202.11 86.2856C203.32 89.6656 204.89 92.8856 206.7 95.9756C207.907 98.0472 209.138 100.105 210.368 102.164C211.259 103.653 212.149 105.141 213.03 106.636C214.11 108.466 214.85 110.406 215.07 112.546C215.33 115.096 214.8 117.476 213.65 119.736C212.39 122.196 210.61 124.246 208.55 126.056C205.17 129.046 201.35 131.356 197.26 133.236C196.8 133.446 196.48 133.466 196.08 133.086C195.403 132.452 194.681 131.872 193.96 131.291C193.85 131.203 193.74 131.114 193.63 131.026C193.37 130.816 193.22 130.626 193.26 130.256C193.58 127.126 192.79 124.176 191.69 121.286C191.6 121.056 191.513 120.823 191.416 120.564C191.353 120.394 191.285 120.213 191.21 120.016L191.264 120.024C192.784 120.271 194.23 120.506 195.89 120.526C194.41 118.976 193.47 117.276 192.57 115.546C192.28 114.996 192.03 114.426 191.8 113.856C190.34 110.286 188.24 107.176 185.13 104.696C186.81 103.416 187.94 101.826 188.14 99.7056C188.29 98.1356 188.02 96.6456 187.31 95.0956C185.63 97.8256 183.2 98.1556 180.48 97.5556C179.94 97.4356 179.4 97.2856 178.91 97.0556C175.97 95.6756 172.85 95.2956 169.65 95.2756H168.5C168.381 94.6073 168.69 94.1234 168.988 93.655C169.016 93.6118 169.043 93.5687 169.07 93.5256C169.91 92.2056 171.05 91.1456 172.24 90.1356C172.68 89.7656 173.12 89.3956 173.7 88.9156C170.68 89.3007 167.982 88.5144 165.305 87.7343C164.853 87.6027 164.402 87.4712 163.95 87.3456C163.65 87.2633 163.35 87.1805 163.05 87.0977C160.362 86.3567 157.682 85.6174 154.92 85.1856C150.74 84.5356 146.68 85.0756 142.72 86.4956C139.59 87.6256 136.69 89.1956 134.02 91.1756C133.911 91.2567 133.801 91.3361 133.686 91.4198C133.517 91.5427 133.334 91.675 133.12 91.8356C133.186 91.4194 133.342 91.1098 133.488 90.8212C133.542 90.7146 133.594 90.6108 133.64 90.5056C135.2 87.0156 136.2 83.3856 136.4 79.5556C136.68 74.1056 135.34 69.0256 132.62 64.3256C128.72 57.5656 123.21 52.4156 116.46 48.5556C115.89 48.2356 115.31 47.9256 114.68 47.7556C114.25 47.6356 113.76 47.5856 113.42 47.9656C113.07 48.3556 113.24 48.8056 113.41 49.2256C113.635 49.7825 113.988 50.2507 114.341 50.717C114.381 50.7699 114.42 50.8227 114.46 50.8756C116.51 53.6956 118.38 56.6156 119.75 59.8456C121.09 63.0056 121.78 66.2756 121.52 69.7156C121.29 72.8156 120.31 75.7056 118.92 78.4656C117.06 82.1556 114.62 85.4356 111.98 88.5856C109.81 91.1756 107.51 93.6456 105.03 95.9456C100.14 100.496 95.7102 105.446 92.1102 111.086C89.5702 115.056 87.5402 119.256 86.4602 123.876C85.4002 128.426 85.3502 132.956 86.9702 137.416C87.3102 138.356 87.7702 139.236 88.3002 140.176C87.5726 140.225 87.0934 139.848 86.6249 139.479L86.6202 139.476C85.7202 138.766 85.0302 137.856 84.3902 136.916C84.1202 136.516 83.8602 136.116 83.5602 135.646C82.2002 137.456 81.7302 139.446 81.9102 141.606C82.0802 143.666 82.7302 145.586 83.7502 147.366C84.0502 147.886 84.0302 148.236 83.7302 148.746C80.8902 153.506 78.7202 158.546 77.3902 163.936C77.0702 165.216 76.9102 166.506 76.8602 167.816C76.7802 170.196 76.8002 172.576 76.9302 174.956C77.0802 177.916 77.1402 180.886 77.0502 183.846C76.9502 187.196 76.5402 190.496 75.5302 193.716C74.5502 196.856 73.9702 200.076 73.8602 203.356C73.5502 212.666 76.7102 220.426 84.1702 226.236C85.5402 227.306 87.0602 228.056 88.7302 228.576C95.0302 230.536 101.32 232.576 107.42 235.126C109.11 235.826 110.74 236.626 112.32 237.556C114.1 238.606 115.96 239.516 117.98 240.006C118.035 240.019 118.089 240.035 118.144 240.051C118.289 240.093 118.435 240.136 118.58 240.136C119.51 240.166 119.55 240.196 119.5 241.296C119.44 242.476 119.1 243.596 118.75 244.716C117.33 249.186 115.41 253.456 113.42 257.696C111.46 261.876 109.39 265.996 107.09 269.996C105.83 272.186 105.3 274.606 105.01 277.086C104.61 280.486 104.66 283.896 104.95 287.306C105.22 290.516 104.99 293.716 104.73 296.906C104.564 298.869 104.368 300.832 104.171 302.795C104.048 304.022 103.926 305.249 103.81 306.476C103.707 307.539 103.61 308.603 103.514 309.668C103.374 311.201 103.235 312.735 103.076 314.266C126.156 328.068 153.152 336 182 336C222.328 336 259.035 320.499 286.488 295.13Z" fill="#1D252D"/>
<defs>
<linearGradient id="paint0_linear_7299_248400" x1="19" y1="350.5" x2="281" y2="54" gradientUnits="userSpaceOnUse">
<stop stop-color="#FFBE17"/>
<stop offset="0.640625" stop-color="#FFE297"/>
</linearGradient>
</defs>
</svg>
