<svg width="52" height="52" viewBox="0 0 52 52" fill="none" xmlns="http://www.w3.org/2000/svg">
<circle cx="26" cy="26" r="26" fill="url(#paint0_linear_14591_467310)"/>
<path d="M27.5808 8.99299C28.7515 9.77879 29.8255 10.9575 30.4981 11.7536C31.7402 13.2156 33.1232 14.8203 33.8105 16.6214C34.3044 17.92 34.3612 19.4482 33.6192 20.6289C32.9782 21.6504 31.8495 22.2646 30.7713 22.8353C29.0688 23.7369 27.3664 24.6385 25.6597 25.5401C25.5925 25.5753 25.521 25.6166 25.4958 25.6849C25.4664 25.7572 25.5 25.8358 25.5273 25.9082C25.7375 26.4252 25.9687 26.8759 26.0906 27.3516C26.2419 27.9388 26.1852 27.4674 26.2587 28.462C26.2903 28.888 26.1999 29.376 25.9876 29.7772C25.9098 29.9219 25.83 30.1494 25.6744 30.199C25.3739 30.2941 24.1527 28.828 23.7051 28.5468C22.7046 27.9202 22.1098 27.6038 21.6642 27.7155C21.6096 27.7279 20.5902 28.2945 20.1551 28.857C19.8819 29.2126 19.6066 29.6117 19.388 29.9467C18.5746 31.1875 18.8793 32.4468 18.9844 32.8769C19.3102 34.2231 20.6995 34.2396 21.8849 34.2004C24.159 34.1238 26.5383 34.2583 28.5224 35.3563C28.8839 35.5569 29.2769 35.9208 29.1319 36.3013C29.0499 36.5122 28.8292 36.6342 28.6212 36.7294C27.6859 37.1636 26.6917 37.4779 25.6744 37.6578C24.8842 37.7985 24.0582 37.8667 23.3541 38.2451C22.5827 38.6587 22.0425 39.4073 21.6978 40.2034C21.4204 40.8465 20.9895 44.1385 19.7768 43.5513C19.5645 43.4499 19.4153 43.2556 19.2934 43.0571C18.7826 42.2216 18.6776 41.2332 18.2866 40.3502C17.8474 39.3556 17.0424 38.8572 16.1743 38.2472C14.3941 36.9982 12.8577 35.1123 12.3091 33.0072C11.5714 30.1825 11.7479 26.634 13.2528 24.0574C12.9523 23.7514 12.8009 23.7266 11.0964 23.8548C10.8484 23.8734 9.46539 24.2146 9.33928 23.9995C9.2384 23.8258 9.33298 23.4578 9.46119 23.1579C9.50323 23.0628 9.55366 22.9532 9.58729 22.8746C9.78696 22.3701 10.18 22.0227 10.6025 21.6835C11.7753 20.7406 13.049 19.9527 14.4824 19.4399C14.909 19.2889 15.094 19.0242 15.2748 18.5941C16.8742 14.7954 20.4893 8.3809 25.2667 8.17825C26.0233 8.1431 26.8241 8.48637 27.5808 8.99299Z" fill="#1D252D"/>
<path d="M42.707 30.4394C39.5458 32.5053 37.7133 34.4788 37.7983 35.6992C37.7951 35.696 37.7951 35.6927 37.7951 35.6895C37.6314 32.8867 36.0181 30.6877 34.0514 30.6877C33.5769 30.6877 33.122 30.8159 32.7031 31.0496C35.7727 29.0388 37.5791 27.1205 37.5856 25.8984C37.7787 28.6623 39.3822 30.8191 41.3293 30.8191C41.8169 30.8191 42.2816 30.6844 42.707 30.4394Z" fill="#1D252D"/>
<defs>
<linearGradient id="paint0_linear_14591_467310" x1="2.71429" y1="50.0714" x2="40.1429" y2="7.71428" gradientUnits="userSpaceOnUse">
<stop stop-color="#FFBE17"/>
<stop offset="0.640625" stop-color="#FFE297"/>
</linearGradient>
</defs>
</svg>
