<svg width="240" height="240" viewBox="0 0 240 240" fill="none" xmlns="http://www.w3.org/2000/svg">
<circle cx="120" cy="120" r="120" fill="url(#paint0_linear_5886_4209)"/>
<mask id="mask0_5886_4209" style="mask-type:alpha" maskUnits="userSpaceOnUse" x="3" y="3" width="234" height="234">
<circle cx="120" cy="120" r="116.25" fill="#D9D9D9"/>
</mask>
<g mask="url(#mask0_5886_4209)">
<path d="M113.695 251.856C2.19357 245.53 -9.70268 146.433 -0.0245209 115.684C7.23248 104.703 16.9123 96.064 36.2686 93.7208C74.9812 89.0344 99.9842 120.077 113.695 135.451C175.637 195.191 220.156 161.807 234.672 137.647C241.931 183.77 191.119 256.249 113.695 251.856Z" fill="url(#paint1_linear_5886_4209)"/>
<path d="M121.706 236.761C233.208 230.435 245.105 131.338 235.426 100.59C228.169 89.6085 218.49 80.9692 199.133 78.626C160.421 73.9397 135.418 104.982 121.706 120.356C59.7649 180.096 15.2461 146.712 0.729374 122.552C-6.52925 168.675 44.2827 241.154 121.706 236.761Z" fill="url(#paint2_linear_5886_4209)"/>
</g>
<circle cx="120" cy="120" r="117.188" stroke="url(#paint3_linear_5886_4209)" stroke-width="5.625"/>
<path d="M138.615 36.6408C142.688 39.4204 146.425 43.5899 148.765 46.4061C153.087 51.5778 157.899 57.2541 160.29 63.6253C162.008 68.2191 162.206 73.6248 159.625 77.8015C157.394 81.4151 153.467 83.5876 149.716 85.6065C143.792 88.7958 137.869 91.9851 131.931 95.1744C131.697 95.2987 131.448 95.445 131.361 95.6864C131.258 95.9424 131.375 96.2204 131.47 96.4764C132.202 98.3051 133.006 99.8998 133.43 101.582C133.957 103.66 133.759 101.992 134.015 105.51C134.125 107.017 133.811 108.743 133.072 110.163C132.801 110.675 132.523 111.479 131.982 111.655C130.937 111.991 126.688 106.805 125.13 105.81C121.649 103.594 119.58 102.475 118.03 102.87C117.839 102.913 114.293 104.918 112.779 106.907C111.828 108.166 110.87 109.577 110.11 110.762C107.28 115.151 108.34 119.606 108.706 121.127C109.839 125.889 114.673 125.948 118.797 125.809C126.71 125.538 134.988 126.014 141.891 129.898C143.149 130.608 144.516 131.895 144.012 133.241C143.727 133.987 142.959 134.419 142.235 134.755C138.981 136.291 135.522 137.403 131.982 138.039C129.233 138.537 126.359 138.778 123.909 140.117C121.225 141.58 119.346 144.228 118.147 147.044C117.181 149.319 115.682 160.964 111.463 158.887C110.724 158.528 110.205 157.841 109.781 157.139C108.004 154.183 107.638 150.687 106.278 147.563C104.75 144.045 101.949 142.282 98.9287 140.124C92.7347 135.706 87.3891 129.035 85.4805 121.588C82.9137 111.596 83.528 99.0439 88.7639 89.9296C87.7182 88.847 87.1917 88.7592 81.261 89.2127C80.3981 89.2786 75.5863 90.4855 75.1475 89.7248C74.7965 89.1103 75.1256 87.8083 75.5717 86.7476C75.718 86.4111 75.8934 86.0235 76.0104 85.7455C76.7052 83.9607 78.0727 82.7318 79.5425 81.5321C83.623 78.1966 88.0546 75.4096 93.0419 73.5955C94.5264 73.0615 95.1699 72.1252 95.7988 70.6037C101.364 57.1663 113.942 34.4756 130.564 33.7587C133.196 33.6344 135.982 34.8487 138.615 36.6408Z" fill="white"/>
<path d="M189 117.29C178.572 124.246 172.527 130.891 172.808 135C172.797 134.989 172.797 134.978 172.797 134.967C172.257 125.53 166.935 118.126 160.447 118.126C158.882 118.126 157.382 118.557 156 119.344C166.126 112.574 172.084 106.115 172.106 102C172.743 111.306 178.032 118.568 184.455 118.568C186.064 118.568 187.597 118.115 189 117.29Z" fill="white"/>
<path d="M96.0375 186.215H88.1625V209H77.295V186.215H69.525V177.657H96.0375V186.215ZM108.553 177.657H119.421V200.442H131.601V209H108.553V177.657ZM144.153 177.71H157.54C166.255 177.71 170.193 182.96 170.193 188.367C170.193 193.985 165.888 199.077 158.223 199.077H154.863V209H144.153V177.71ZM154.81 191.622H155.913C158.485 191.622 159.325 189.942 159.325 188.525C159.325 186.897 158.275 185.375 155.86 185.375H154.81V191.622Z" fill="white"/>
<defs>
<linearGradient id="paint0_linear_5886_4209" x1="120" y1="0" x2="120" y2="240" gradientUnits="userSpaceOnUse">
<stop stop-color="#1C2E40"/>
<stop offset="1" stop-color="#6DB4FE"/>
</linearGradient>
<linearGradient id="paint1_linear_5886_4209" x1="126.482" y1="111.291" x2="127.348" y2="283.495" gradientUnits="userSpaceOnUse">
<stop stop-color="#5056EA"/>
<stop offset="1" stop-color="#000009"/>
</linearGradient>
<linearGradient id="paint2_linear_5886_4209" x1="113.759" y1="140" x2="113.759" y2="263" gradientUnits="userSpaceOnUse">
<stop stop-color="#5056EA"/>
<stop offset="1" stop-color="#2A2D81"/>
</linearGradient>
<linearGradient id="paint3_linear_5886_4209" x1="232.5" y1="20.625" x2="86.8966" y2="60.1781" gradientUnits="userSpaceOnUse">
<stop stop-color="#8AA8F3"/>
<stop offset="1" stop-color="#D6D8DF"/>
</linearGradient>
</defs>
</svg>
