<svg width="2400" height="2400" viewBox="0 0 2400 2400" fill="none" xmlns="http://www.w3.org/2000/svg">
<rect width="2400" height="2400" rx="200" fill="white"/>
<path d="M1781.81 1394.1C1781.81 1566.02 1726.8 1721.38 1613.99 1824.69C1501.59 1927.62 1329.47 1981.02 1090.5 1944.82C941.672 1902.02 835.932 1819.48 767.082 1705.43C697.874 1590.79 665.297 1443.22 665.297 1270C665.297 1098.57 726.835 936.421 821.003 815.793C915.31 694.988 1041.11 617.242 1168.99 611.464C1355.82 603.024 1508.62 710.764 1615.52 866.03C1722.47 1021.37 1781.81 1222.18 1781.81 1394.1Z" fill="#0A2037" stroke="black" stroke-width="30"/>
<path d="M1721.5 1128.52C1777.83 1397.15 1644.79 1674.71 1260.08 1701.48C1011.44 1686.95 869.849 1515.93 813.521 1247.29C757.193 978.655 899.769 696.204 1102.84 640.984C1393.84 561.856 1632.34 834.492 1721.5 1128.52Z" fill="white" fill-opacity="0.2"/>
<path d="M2074.3 463.923C1993.4 527.584 1946.51 588.394 1948.68 626C1948.6 625.9 1948.6 625.8 1948.6 625.7C1944.41 539.336 1903.13 471.574 1852.8 471.574C1840.66 471.574 1829.02 475.525 1818.3 482.726C1896.85 420.766 1943.07 361.656 1943.24 324C1948.18 409.164 1989.21 475.625 2039.04 475.625C2051.52 475.625 2063.41 471.474 2074.3 463.923Z" fill="#FFD362"/>
<path d="M668.579 748.768C540.996 870.718 470.874 982.355 480.623 1046.41C480.464 1046.25 480.448 1046.08 480.432 1045.91C459.428 898.671 378.215 789.218 292.477 797.258C271.792 799.198 252.597 807.824 235.493 821.869C359.355 703.206 428.609 594.588 422.846 530.071C444.941 675.135 525.518 782.402 610.399 774.442C631.655 772.448 651.246 763.44 668.579 748.768Z" fill="#FFD362"/>
<path d="M1653 951.29C1757.26 1144.32 1736.01 1355.67 1472.59 1454.24C1294.67 1493.73 1154.12 1392.33 1049.85 1199.31C945.588 1006.28 977.192 761.758 1106.67 678.997C1295.5 558.297 1528.49 720.791 1653 951.29Z" fill="white" fill-opacity="0.2"/>
<path d="M1580.8 1404.5L1343.3 1362.55L1115.18 1388C1074.77 1381.67 1035.64 1356.76 955.297 1298.72C1022.21 1331.09 1059.65 1348.02 1125.78 1362.55L1312.8 1313L1580.8 1337C1686.3 1278.5 1686.3 1248 1752.8 1188.5L1753.52 1191.5L1754.3 1195.34C1754.3 1198 1784.6 1249.18 1580.8 1404.5Z" fill="#0A2037"/>
<path d="M1752.8 1188.5C1686.3 1248 1686.3 1278.5 1580.8 1337L1312.8 1313L1125.78 1362.55C1059.65 1348.02 1022.21 1331.09 955.297 1298.72C1035.64 1356.76 1074.77 1381.67 1115.18 1388L1343.3 1362.55L1580.8 1404.5C1784.6 1249.18 1754.3 1198 1754.3 1195.34M1752.8 1188.5L1753.52 1191.5L1754.3 1195.34M1752.8 1188.5L1754.3 1195.34" stroke="black" stroke-width="20" stroke-linejoin="bevel"/>
<path d="M1053.28 996.437C975.862 1057.15 930.982 1115.14 933.065 1151C932.985 1150.9 932.985 1150.81 932.985 1150.71C928.978 1068.35 889.467 1003.73 841.301 1003.73C829.68 1003.73 818.54 1007.5 808.281 1014.37C883.456 955.28 927.696 898.911 927.856 863C932.584 944.216 971.855 1007.6 1019.54 1007.6C1031.48 1007.6 1042.86 1003.64 1053.28 996.437Z" fill="#FFE08F"/>
<path d="M1766 1394.35C1763.28 1699.99 1605 1839 1482 1893C1529 1852.5 1614.97 1812.37 1660.5 1671.85C1701 1546.85 1700 1389.85 1701 1394.35C1660.5 746.852 1334.5 645.127 1134 630.005C1524.5 581.004 1769 1057 1766 1394.35Z" fill="white" fill-opacity="0.2"/>
</svg>
