<svg width="20" height="20" viewBox="0 0 20 20" fill="none" xmlns="http://www.w3.org/2000/svg">
<path d="M10 20C15.5228 20 20 15.5228 20 10C20 4.47715 15.5228 0 10 0C4.47715 0 0 4.47715 0 10C0 15.5228 4.47715 20 10 20Z" fill="#5681D6"/>
<path d="M9.37885 14.3105C9.37885 14.1571 9.37618 14.0038 9.38018 13.8505C9.38151 13.7978 9.36618 13.7805 9.31418 13.7725C9.00351 13.7238 8.70351 13.6391 8.41951 13.5038C7.77818 13.1971 7.38151 12.6945 7.21551 12.0065C7.19351 11.9165 7.16885 11.8258 7.17218 11.7311C7.17818 11.5745 7.29351 11.4565 7.45018 11.4545C7.69351 11.4518 7.93685 11.4518 8.18018 11.4545C8.31951 11.4558 8.43085 11.5578 8.46418 11.7111C8.49285 11.8418 8.52951 11.9691 8.58751 12.0898C8.72151 12.3705 8.93885 12.5625 9.23085 12.6611C9.66818 12.8085 10.1148 12.8378 10.5628 12.7118C10.8855 12.6211 11.1495 12.4418 11.3068 12.1351C11.4488 11.8585 11.4575 11.5678 11.3602 11.2771C11.2835 11.0485 11.1042 10.9138 10.8948 10.8151C10.6662 10.7071 10.4222 10.6491 10.1768 10.5938C9.91818 10.5351 9.65418 10.5125 9.39418 10.4651C9.02351 10.3978 8.65885 10.3085 8.31685 10.1451C7.94351 9.96647 7.64351 9.7118 7.46951 9.32714C7.37551 9.12047 7.32885 8.90113 7.30885 8.67647C7.28485 8.40913 7.29485 8.1438 7.36951 7.88447C7.50151 7.42714 7.77285 7.0718 8.16218 6.8038C8.50351 6.56913 8.88485 6.43847 9.29151 6.37913C9.33218 6.37313 9.33885 6.3578 9.33818 6.32247C9.33685 6.03447 9.33751 5.7458 9.33751 5.4578C9.33751 5.2358 9.49285 5.07913 9.71285 5.07913C9.89418 5.07913 10.0762 5.07647 10.2575 5.0798C10.3775 5.0818 10.4802 5.13113 10.5608 5.22113C10.6162 5.28313 10.6308 5.35847 10.6302 5.43913C10.6295 5.7438 10.6308 6.04913 10.6288 6.3538C10.6282 6.40113 10.6415 6.4138 10.6882 6.41913C11.6022 6.5258 12.3202 7.1918 12.5002 8.09847C12.5368 8.2838 12.4062 8.45047 12.2168 8.45314C11.9922 8.4558 11.7668 8.45514 11.5422 8.45314C11.4115 8.4518 11.2995 8.36913 11.2542 8.24313C11.2188 8.1458 11.1808 8.05047 11.1302 7.9598C10.9875 7.70247 10.7748 7.5278 10.4928 7.44913C10.0982 7.33913 9.69951 7.33647 9.30485 7.44713C9.08085 7.5098 8.89085 7.62847 8.76285 7.83047C8.68551 7.95247 8.64551 8.08713 8.63485 8.23047C8.62551 8.36247 8.63018 8.49314 8.65951 8.62314C8.71951 8.8838 8.89151 9.0458 9.12351 9.15647C9.34751 9.2638 9.58685 9.3198 9.82951 9.36313C10.1835 9.42647 10.5422 9.45447 10.8935 9.53313C11.2422 9.61113 11.5822 9.7118 11.8948 9.89047C12.3628 10.1585 12.6295 10.5631 12.7142 11.0918C12.7662 11.4171 12.7735 11.7418 12.6968 12.0645C12.5635 12.6271 12.2402 13.0551 11.7615 13.3705C11.4488 13.5765 11.1042 13.7038 10.7368 13.7705C10.6842 13.7798 10.6695 13.7978 10.6695 13.8518C10.6728 14.1485 10.6728 14.4451 10.6702 14.7418C10.6695 14.8605 10.6208 14.9618 10.5342 15.0425C10.4822 15.0911 10.4188 15.1151 10.3475 15.1158C10.1408 15.1171 9.93418 15.1218 9.72751 15.1158C9.52218 15.1098 9.37885 14.9538 9.37818 14.7485C9.37818 14.6038 9.37885 14.4571 9.37885 14.3105Z" fill="#FEFEFE"/>
<path d="M17.5244 10.2183C17.5004 11.677 17.0998 13.023 16.3031 14.247C15.6324 15.277 14.7571 16.0897 13.6838 16.6883C13.2538 16.9283 12.8038 17.121 12.3351 17.271C12.2891 17.2857 12.2518 17.3177 12.2011 17.323C12.0444 17.3383 11.9044 17.2223 11.8851 17.057C11.8751 16.971 11.8804 16.8837 11.8804 16.797C11.8804 16.6503 11.8778 16.5037 11.8838 16.357C11.8911 16.171 11.9904 16.0457 12.1631 15.981C12.7191 15.7717 13.2391 15.4943 13.7151 15.139C14.6938 14.4083 15.3964 13.471 15.8231 12.3257C15.9944 11.8657 16.1191 11.3937 16.1811 10.907C16.2371 10.4697 16.2471 10.0303 16.2064 9.59099C16.0791 8.23232 15.5671 7.03699 14.6691 6.01099C13.9924 5.23832 13.1671 4.67699 12.2058 4.31566C12.0124 4.24299 11.9004 4.09499 11.8858 3.89566C11.8691 3.67166 11.8738 3.44566 11.8864 3.22166C11.8918 3.12033 11.9438 3.02366 12.0338 2.96166C12.1031 2.91366 12.1811 2.91299 12.2591 2.93899C12.3444 2.96766 12.4284 2.99766 12.5131 3.02899C13.7178 3.46766 14.7518 4.15966 15.6064 5.11566C16.3518 5.95032 16.8818 6.90633 17.2038 7.97832C17.3538 8.47699 17.4518 8.98566 17.4958 9.50499C17.5158 9.74233 17.5258 9.98032 17.5244 10.2183Z" fill="#FEFEFE"/>
<path d="M2.48484 10.0202C2.50151 8.77423 2.80151 7.60023 3.39817 6.50557C4.00417 5.3929 4.84017 4.49023 5.90551 3.80223C6.45751 3.44557 7.04751 3.1689 7.67351 2.96757C7.71951 2.9529 7.75684 2.9209 7.80751 2.91557C7.96217 2.89957 8.10151 3.0129 8.12417 3.17557C8.12617 3.1889 8.12751 3.20223 8.12751 3.21557C8.12751 3.4369 8.13084 3.6589 8.12551 3.88023C8.12084 4.06623 8.02017 4.19223 7.84751 4.2569C7.32817 4.4529 6.83951 4.7069 6.38817 5.0309C5.36284 5.76757 4.62817 6.7269 4.18684 7.9109C4.01551 8.3709 3.89084 8.84223 3.82817 9.32957C3.77217 9.7689 3.76351 10.2089 3.80284 10.6509C3.87084 11.4129 4.07084 12.1389 4.40684 12.8262C4.89951 13.8342 5.61017 14.6542 6.54351 15.2789C6.95017 15.5516 7.38484 15.7696 7.84484 15.9376C7.97817 15.9862 8.12751 16.1909 8.12884 16.3329C8.13084 16.5396 8.13217 16.7462 8.12751 16.9529C8.12551 17.0562 8.07484 17.1449 8.00217 17.2156C7.93417 17.2816 7.84684 17.2902 7.75884 17.2609C7.28817 17.1042 6.82884 16.9182 6.39417 16.6776C4.88417 15.8422 3.78551 14.6329 3.09617 13.0522C2.82351 12.4262 2.64617 11.7736 2.55484 11.0969C2.54417 11.0196 2.53417 10.9416 2.52617 10.8642C2.49617 10.5829 2.48151 10.3022 2.48484 10.0202Z" fill="#FEFEFE"/>
</svg>
