<svg width="52" height="52" viewBox="0 0 52 52" fill="none" xmlns="http://www.w3.org/2000/svg">
<circle cx="26" cy="26" r="26" fill="#61BABD"/>
<path d="M26.579 41.9454C25.8972 42.1953 25.3497 41.9896 24.8482 41.4931C19.7882 36.4791 14.7197 31.4718 9.65468 26.4629C9.62407 26.4323 9.59347 26.4034 9.56456 26.3728C8.89636 25.6995 8.82835 25.169 9.32313 24.3614C10.4759 22.4775 11.6355 20.597 12.7865 18.7131C13.5347 17.4889 14.3032 16.2766 15.0054 15.027C15.4219 14.2856 15.9847 14 16.823 14.0034C21.7656 14.0272 26.7082 14.0153 31.6509 14.0153C31.8345 14.0153 32.0181 14.0051 32.2018 14C33.3902 14.0034 34.5787 14.0221 35.7672 14.0068C36.4303 13.9983 36.8979 14.2567 37.226 14.8331C39.0572 18.0398 40.9003 21.2397 42.7314 24.4447C43.1514 25.1792 43.0851 25.6893 42.4883 26.2792C37.7701 30.9481 33.0502 35.6153 28.3252 40.2757C27.7556 40.8453 27.2336 41.4659 26.579 41.9454ZM33.4446 21.1581C33.4497 20.3522 33.4463 19.5445 33.4633 18.7386C33.4684 18.4836 33.3596 18.4343 33.1335 18.4343C31.3227 18.4445 29.5103 18.4462 27.6995 18.4496C24.7682 18.4445 21.8387 18.4428 18.9075 18.4309C18.6575 18.4292 18.5963 18.5261 18.5997 18.7556C18.6116 19.3932 18.6031 20.0291 18.6031 20.6667C18.6031 21.2244 18.6031 21.2261 19.1421 21.2261C20.6859 21.2278 22.2281 21.2329 23.7719 21.2227C24.0609 21.221 24.1834 21.3043 24.1681 21.6052C24.1493 21.9725 24.1442 22.3432 24.1698 22.7087C24.1936 23.0539 24.0677 23.1797 23.7192 23.1933C22.7279 23.2273 21.7435 23.3582 20.7726 23.5503C19.7746 23.7476 18.7731 23.9482 17.8822 24.4872C17.5014 24.7184 17.2803 25.0075 17.3092 25.4852C17.3415 26.0361 17.3347 26.5904 17.3109 27.1413C17.2922 27.5663 17.481 27.835 17.8227 28.0424C18.3362 28.3536 18.8922 28.5542 19.4651 28.7208C20.8577 29.1255 22.2944 29.2666 23.7311 29.3805C24.1408 29.4128 24.1732 29.5726 24.1698 29.8957C24.1596 31.1845 24.1698 32.4733 24.1698 33.7604C24.1698 33.9729 24.1749 34.1514 24.4741 34.1463C25.4075 34.1293 26.3427 34.1293 27.2761 34.1225C27.878 34.1565 27.878 34.1565 27.878 33.5597C27.878 32.2998 27.8865 31.0383 27.8729 29.7784C27.8695 29.4961 27.9426 29.3839 28.2419 29.3635C29.3436 29.2904 30.4437 29.2003 31.5268 28.9707C32.4687 28.7701 33.4055 28.5508 34.2421 28.039C34.5991 27.8197 34.781 27.5306 34.7555 27.0937C34.7283 26.6142 34.7113 26.1279 34.7589 25.6501C34.8218 25.0313 34.5515 24.6572 34.0244 24.4039C32.399 23.6234 30.6579 23.3395 28.8829 23.2817C28.0259 23.2545 27.878 23.2001 27.878 22.3721C27.878 22.1595 27.9001 21.9436 27.8729 21.7362C27.8202 21.3315 27.9613 21.2074 28.3796 21.2125C30.0492 21.2329 31.7206 21.2125 33.3919 21.2091C33.4378 21.2193 33.4548 21.2023 33.4446 21.1581Z" fill="white"/>
<path d="M26.9345 26.6755C27.8798 26.7146 27.873 26.7146 27.8815 25.7675C27.8849 25.4156 27.7285 24.9395 27.9478 24.7491C28.1434 24.5807 28.6109 24.7015 28.9544 24.7338C30.4778 24.8783 31.991 25.0891 33.4396 25.6196C33.6913 25.7114 33.9361 25.8287 34.1657 25.9664C34.5992 26.2266 34.5992 26.3422 34.1742 26.5938C33.8698 26.7741 33.5485 26.9203 33.2118 27.0359C31.6833 27.5579 30.0969 27.733 28.5004 27.8707C28.2046 27.8962 27.9087 27.9285 27.6146 27.9591C26.4278 27.9557 25.2393 28.0033 24.0559 27.9336C23.0035 27.8707 21.9578 27.6922 20.9122 27.5409C19.9736 27.4032 19.0572 27.1668 18.1935 26.7588C18.1544 26.7401 18.1169 26.7231 18.0795 26.701C17.8891 26.587 17.595 26.5139 17.595 26.281C17.595 26.0787 17.8636 25.9766 18.0506 25.8797C19.0045 25.385 20.045 25.1809 21.089 24.9939C21.9935 24.8324 22.9083 24.7491 23.8247 24.6794C24.0882 24.6589 24.1835 24.7253 24.175 24.9905C24.1614 25.4428 24.1784 25.895 24.1716 26.3473C24.1682 26.5649 24.2243 26.6891 24.4776 26.6857C25.2954 26.6755 26.1149 26.7656 26.9345 26.6755Z" fill="white"/>
</svg>
