<svg width="60" height="60" viewBox="0 0 60 60" fill="none" xmlns="http://www.w3.org/2000/svg">
<circle cx="30" cy="30" r="30" fill="#122A5F"/>
<path d="M11.546 36.8488C13.2205 36.8488 14.888 36.87 16.552 36.8346C16.983 36.824 17.0925 37.0819 17.255 37.354C18.322 39.1663 19.6574 40.7208 21.4203 41.9007C25.4548 44.5998 29.7896 45.2463 34.3187 43.494C39.5721 41.4627 42.5573 37.4811 43.2109 31.931C43.9033 26.0524 40.6814 20.474 35.3291 17.9551C33.6121 17.1461 31.8139 16.6762 29.9203 16.6444C29.3974 16.6373 29.3727 16.3865 29.3763 15.9908C29.3904 14.7013 29.4045 13.4118 29.3692 12.1259C29.3551 11.5995 29.5317 11.5182 30.0228 11.543C35.9368 11.8397 40.8333 14.2209 44.3873 18.9513C49.0896 25.2151 49.7078 32.0335 46.3163 39.0709C42.8753 46.2108 35.0253 50.3831 27.1576 49.3409C19.5691 48.3376 14.4146 44.1264 11.5495 37.0643C11.5283 37.0183 11.546 36.9547 11.546 36.8488Z" fill="#FCFDFE"/>
<path d="M19.9038 36.8489C22.9102 36.8489 25.7718 36.8454 28.6299 36.8489C29.2446 36.8489 29.8558 36.8171 30.467 36.7182C33.4805 36.2201 35.7698 33.475 35.7027 30.4156C35.632 27.2325 33.2297 24.6005 30.0855 24.2932C28.2837 24.1165 26.4713 24.0247 24.7862 23.2404C21.4335 21.6753 19.2855 19.1105 18.2963 15.5564C18.1798 15.1431 18.4129 14.9841 18.6955 14.7969C20.038 13.9101 21.4653 13.193 23.0304 12.6348C23.0869 14.1963 23.5179 15.6024 24.4965 16.7929C25.786 18.3615 27.4888 19.0363 29.4884 19.1211C34.12 19.3189 37.6246 21.4492 39.6383 25.6074C41.6061 29.6702 41.1857 33.7259 38.4724 37.3364C35.8087 40.887 32.1274 42.3778 27.6972 41.7596C24.4506 41.3074 21.9069 39.6469 19.9038 36.8489Z" fill="#FCFDFE"/>
<path d="M16.1034 16.9727C17.9264 22.5864 22.9501 26.4407 28.6733 26.6633C29.2633 26.6845 29.4152 26.8611 29.3975 27.4228C29.3587 28.6523 29.3587 29.8817 29.3975 31.1111C29.4152 31.641 29.2986 31.8 28.7334 31.7682C21.6889 31.3619 16.3966 28.1223 12.8073 22.067C12.6907 21.8692 12.5282 21.6855 12.6766 21.4382C13.6269 19.8413 14.6691 18.3081 16.1034 16.9727Z" fill="#FCFDFE"/>
</svg>
